<?xml version="1.0" encoding="UTF-8"?>
<!DOCTYPE svg PUBLIC "-//W3C//DTD SVG 1.1//EN" "http://www.w3.org/Graphics/SVG/1.1/DTD/svg11.dtd">
<svg xmlns="http://www.w3.org/2000/svg" version="1.1" width="50px" height="50px" style="shape-rendering:geometricPrecision; text-rendering:geometricPrecision; image-rendering:optimizeQuality; fill-rule:evenodd; clip-rule:evenodd" xmlns:xlink="http://www.w3.org/1999/xlink">
<g><path style="opacity:0.615" fill="#000000" d="M 17.5,1.5 C 41.1541,0.318958 50.6541,11.319 46,34.5C 38.7573,46.8068 28.2573,50.6402 14.5,46C 2.19317,38.7573 -1.64016,28.2573 3,14.5C 6.16246,8.16411 10.9958,3.83077 17.5,1.5 Z M 18.5,4.5 C 36.9488,3.44852 45.4488,12.1152 44,30.5C 38.1981,42.9824 28.6981,47.1491 15.5,43C 4.9871,36.4639 1.82043,27.2972 6,15.5C 9.1476,10.5094 13.3143,6.84275 18.5,4.5 Z"/></g>
<g><path style="opacity:0.707" fill="#000000" d="M 20.5,13.5 C 29.3284,12.1607 32.8284,15.8274 31,24.5C 27.5,27.3333 24,30.1667 20.5,33C 24.211,33.1747 27.8776,33.6747 31.5,34.5C 26.8804,35.4933 22.2137,35.8266 17.5,35.5C 17.3398,33.8008 17.5065,32.1341 18,30.5C 21.3333,27.8333 24.6667,25.1667 28,22.5C 29.261,16.9202 27.0943,15.0868 21.5,17C 20.6634,18.0113 20.33,19.1779 20.5,20.5C 19.5,20.5 18.5,20.5 17.5,20.5C 17.1496,17.5466 18.1496,15.2133 20.5,13.5 Z"/></g>
</svg>
