<svg xmlns="http://www.w3.org/2000/svg" width="48" height="48" style="shape-rendering:geometricPrecision;text-rendering:geometricPrecision;image-rendering:optimizeQuality;fill-rule:evenodd;clip-rule:evenodd"><path fill="#fccd24" d="M36.5 9.5c-1.431-.38-2.264-1.38-2.5-3-1.044 1.123-1.71 2.456-2 4-.67.752-1.504 1.086-2.5 1l1.5-6c.88-2.846 2.546-3.513 5-2 .495 1.973.662 3.973.5 6Z" style="opacity:.652"/><path fill="#fed232" d="M24.5 10.5a2.428 2.428 0 0 1-.5 2 7.291 7.291 0 0 0-2-3 99.996 99.996 0 0 1-1.5 8c-.94-3.75-1.94-7.583-3-11.5.837-1.011 1.17-2.178 1-3.5 4.289.75 6.289 3.416 6 8Z" style="opacity:.804"/><path fill="#fedb5b" d="M24.5 10.5a60.243 60.243 0 0 0 3 7c1.306.967 1.973 2.3 2 4a24.939 24.939 0 0 1-7-.5c-.88-.708-1.547-1.542-2-2.5v-1a99.996 99.996 0 0 0 1.5-8 7.291 7.291 0 0 1 2 3 2.428 2.428 0 0 0 .5-2Z" style="opacity:.995"/><path fill="#ffdb4b" d="M36.5 9.5c-2.255 5.435-2.255 10.769 0 16-1.872-2.104-4.205-3.437-7-4-.027-1.7-.694-3.033-2-4 .958-1.802 1.625-3.802 2-6 .996.086 1.83-.248 2.5-1 .29-1.544.956-2.877 2-4 .236 1.62 1.069 2.62 2.5 3Z" style="opacity:.886"/><path fill="#f9c827" d="M20.5 18.5c.453.958 1.12 1.792 2 2.5 2.31.497 4.643.663 7 .5 2.795.563 5.128 1.896 7 4 .968 2.107 1.302 4.44 1 7l-2 3c.32-10.053-4.68-14.386-15-13 0-.667-.333-1-1-1-1.953-1.405-2.953-.739-3 2l.5 3c.977 1.274 1.81 1.274 2.5 0 1.055 1.612.555 2.945-1.5 4a3.943 3.943 0 0 1-2-1c-1.268 3.279-2.768 3.612-4.5 1h-1c-1.241-2.963-1.241-5.963 0-9 1.542-1.247 3.042-1.247 4.5 0 .928-2.535 2.762-3.535 5.5-3Z" style="opacity:1"/><path fill="#fccf32" d="M20.5 22.5c10.32-1.386 15.32 2.947 15 13-.25 2.174-1.25 3.84-3 5h-6c-1.459-3.831-1.125-7.498 1-11 .543-.06.876-.393 1-1a135.541 135.541 0 0 1-7-2.5c-.837-1.011-1.17-2.178-1-3.5Z" style="opacity:1"/><path fill="#ffdc58" d="M11.5 30.5a9.864 9.864 0 0 1 1-6c1.884 1.193 2.384 2.86 1.5 5-.67.752-1.504 1.086-2.5 1Z" style="opacity:1"/><path fill="#fedb56" d="M19.5 21.5v5c-.69 1.274-1.523 1.274-2.5 0l-.5-3c.047-2.739 1.047-3.405 3-2Z" style="opacity:1"/><path fill="#fed84a" d="M30.5 30.5h3c1.16 4.675-.506 7.341-5 8-.217-2.92.45-5.587 2-8Z" style="opacity:1"/><path fill="#f0b117" d="M19.5 21.5c.667 0 1 .333 1 1-.17 1.322.163 2.489 1 3.5 2.305.895 4.638 1.729 7 2.5-.124.607-.457.94-1 1l-2-1h-4c.626 3.875-1.04 5.709-5 5.5-1.537 1.11-2.204 2.61-2 4.5 1.18 1.567 2.847 2.4 5 2.5 4.52.814 8.854.647 13-.5 1.75-1.16 2.75-2.826 3-5l2-3c.704 4.303-.63 7.803-4 10.5-6.223 1.581-12.556 1.915-19 1-3.464-3.785-4.798-8.285-4-13.5h1c1.732 2.612 3.232 2.279 4.5-1a3.943 3.943 0 0 0 2 1c2.055-1.055 2.555-2.388 1.5-4v-5Z" style="opacity:.972"/><path fill="#fbce36" d="M25.5 28.5c-2.131 2.946-3.131 6.28-3 10h-8c-.204-1.89.463-3.39 2-4.5 3.96.209 5.626-1.625 5-5.5h4Z" style="opacity:1"/><path fill="#f6c023" d="m25.5 28.5 2 1c-2.125 3.502-2.459 7.169-1 11h6c-4.146 1.147-8.48 1.314-13 .5-2.153-.1-3.82-.933-5-2.5h8c-.131-3.72.869-7.054 3-10Z" style="opacity:1"/></svg>