<svg xmlns="http://www.w3.org/2000/svg" width="48" height="48" style="shape-rendering:geometricPrecision;text-rendering:geometricPrecision;image-rendering:optimizeQuality;fill-rule:evenodd;clip-rule:evenodd"><path fill="#ffd536" d="M25.5 13.5c-6.064-2.17-10.064-.003-12 6.5 1.305 5.8 4.972 8.967 11 9.5-.12 1.086-.787 1.753-2 2-5.468.436-8.968-1.897-10.5-7a32.437 32.437 0 0 1-.5-8 68.884 68.884 0 0 1 7.5-6c.516-2.75 1.683-5.084 3.5-7 1.634.468 2.8 1.468 3.5 3 .796 2.539.63 4.872-.5 7Z" style="opacity:.957"/><path fill="#fed12c" d="M11.5 16.5a32.437 32.437 0 0 0 .5 8c1.532 5.103 5.032 7.436 10.5 7 1.213-.247 1.88-.914 2-2 4.386.926 6.72-.741 7-5-.35 2.54-.35 4.874 0 7-.768.763-1.268 1.763-1.5 3-.67.752-1.504 1.086-2.5 1-5.196-1.058-10.196-2.891-15-5.5-3.172-3.181-4.506-7.014-4-11.5l3-2Z" style="opacity:.988"/><path fill="#fdcf28" d="M35.5 18.5c3.35-.165 6.683.002 10 .5.88 1.356 1.214 2.856 1 4.5a49.391 49.391 0 0 1-11 1v-6Z" style="opacity:.835"/><path fill="#fccc22" d="M8.5 18.5c-.506 4.486.828 8.319 4 11.5 4.804 2.609 9.804 4.442 15 5.5-8.917 2.645-16.084-.021-21.5-8a17.76 17.76 0 0 1-1.5-7c1.171-.845 2.505-1.511 4-2Z" style="opacity:1"/><path fill="#fed94c" d="M25.5 13.5v5h10v6h-4c-.28 4.259-2.614 5.926-7 5-6.028-.533-9.695-3.7-11-9.5 1.936-6.503 5.936-8.67 12-6.5Z" style="opacity:1"/><path fill="#efb014" d="M1.5 20.5c-.292 7.228 2.708 12.728 9 16.5 2.658 1.478 5.325 2.645 8 3.5a24.939 24.939 0 0 1-7-.5c-3.33-2.823-6.996-4.99-11-6.5-.318-4.532.015-8.866 1-13Z" style="opacity:1"/><path fill="#f6bd1c" d="M1.5 20.5h3a17.76 17.76 0 0 0 1.5 7c5.416 7.979 12.583 10.645 21.5 8 .996.086 1.83-.248 2.5-1 .232-1.237.732-2.237 1.5-3-.582 2.498-.582 4.831 0 7-4.014 1.834-8.347 2.5-13 2-2.675-.855-5.342-2.022-8-3.5-6.292-3.772-9.292-9.272-9-16.5Z" style="opacity:1"/><path fill="#edab14" d="M.5 33.5c4.004 1.51 7.67 3.677 11 6.5 2.31.497 4.643.663 7 .5 4.653.5 8.986-.166 13-2 .17 1.322-.163 2.489-1 3.5-6.667.667-13.333.667-20 0-2.616-2.994-5.95-4.494-10-4.5v-4Z" style="opacity:.979"/></svg>