<svg xmlns="http://www.w3.org/2000/svg" width="48" height="48" style="shape-rendering:geometricPrecision;text-rendering:geometricPrecision;image-rendering:optimizeQuality;fill-rule:evenodd;clip-rule:evenodd"><path fill="#f7c021" d="M40.5 9.5v3c-4.598-4.586-9.598-5.086-15-1.5l7 1c1.098.77 1.098 1.603 0 2.5-3.546-.415-7.213-.415-11 0a10.174 10.174 0 0 0-3-3c3.499.241 3.832-.592 1-2.5-4.329-1.151-8.162-.318-11.5 2.5-.717-.544-1.217-1.21-1.5-2 1.671-2.754 4.171-4.087 7.5-4 3.732.075 6.899 1.408 9.5 4 3.67-3.5 8.004-4.666 13-3.5 1.824.66 3.157 1.827 4 3.5Z" style="opacity:.81"/><path fill="#fbcd30" d="M40.5 12.5c.765 3.133 1.432 6.3 2 9.5.193 2.008-.474 3.508-2 4.5.354-4.137-.146-8.137-1.5-12-2.398-2.955-3.898-2.622-4.5 1l-2-1c1.098-.897 1.098-1.73 0-2.5l-7-1c5.402-3.586 10.402-3.086 15 1.5Z" style="opacity:1"/><path fill="#f9c72a" d="M18.5 11.5c-10.05-.582-14.05 4.085-12 14-2.532-3.455-2.532-7.121 0-11l-1-1a493.938 493.938 0 0 1-4 3 26.156 26.156 0 0 1 5-7c.283.79.783 1.456 1.5 2 3.338-2.818 7.171-3.651 11.5-2.5 2.832 1.908 2.499 2.741-1 2.5Z" style="opacity:1"/><path fill="#f4b930" d="M18.5 11.5a10.174 10.174 0 0 1 3 3c-7.983-1.52-11.816 1.813-11.5 10a40.775 40.775 0 0 0 4.5 6c-5.022 2.36-7.688.694-8-5-2.05-9.915 1.95-14.582 12-14Z" style="opacity:.998"/><path fill="#fccc24" d="m40.5 9.5 7 8v7c-3.82 10.836-11.153 14.17-22 10 2.977-1.967 5.977-3.967 9-6-.13.876.203 1.543 1 2a28.83 28.83 0 0 1 4-1.5c.752-.67 1.086-1.504 1-2.5 1.526-.992 2.193-2.492 2-4.5-.568-3.2-1.235-6.367-2-9.5v-3Z" style="opacity:.979"/><path fill="#fccc24" d="M6.5 25.5c.312 5.694 2.978 7.36 8 5a36.068 36.068 0 0 1 7 4c-11.034 4.121-18.367.788-22-10v-7l2-1a493.938 493.938 0 0 0 4-3l1 1c-2.532 3.879-2.532 7.545 0 11Z" style="opacity:.976"/><path fill="#f5bc30" d="M40.5 26.5c.086.996-.248 1.83-1 2.5a28.83 28.83 0 0 0-4 1.5c-.797-.457-1.13-1.124-1-2 4-4.333 4-8.667 0-13 .602-3.622 2.102-3.955 4.5-1 1.354 3.863 1.854 7.863 1.5 12Z" style="opacity:1"/><path fill="#f5bb20" d="M47.5 24.5v13c-4.678-.166-9.345 0-14 .5-2.117.26-3.784 1.26-5 3a32.437 32.437 0 0 1-8 .5c1.228-1.51 1.228-3.01 0-4.5.916-.278 1.582-.778 2-1.5a5.728 5.728 0 0 0 3-1c10.847 4.17 18.18.836 22-10Z" style="opacity:.89"/><path fill="#f5bd24" d="M-.5 24.5c3.633 10.788 10.966 14.121 22 10 .667 0 1 .333 1 1-.418.722-1.084 1.222-2 1.5 1.228 1.49 1.228 2.99 0 4.5a46.447 46.447 0 0 0-7-3.5 98.433 98.433 0 0 0-14-.5v-13Z" style="opacity:1"/></svg>