<svg xmlns="http://www.w3.org/2000/svg" width="48" height="48" style="shape-rendering:geometricPrecision;text-rendering:geometricPrecision;image-rendering:optimizeQuality;fill-rule:evenodd;clip-rule:evenodd"><path fill="#f9c31f" d="M29.5 13.5c-1.41-2.414-3.41-4.08-6-5a39.173 39.173 0 0 1 2-4.5c3.696.044 5.363 2.044 5 6-.014 1.385-.348 2.551-1 3.5Z" style="opacity:.857"/><path fill="#fed229" d="M23.5 8.5c2.59.92 4.59 2.586 6 5-1.984 3.361-.984 5.028 3 5-.709.904-1.709 1.237-3 1h-2c.062-4.231-1.938-6.565-6-7l2-4Z" style="opacity:.881"/><path fill="#fed53a" d="M21.5 12.5c4.062.435 6.062 2.769 6 7 0 .667-.333 1-1 1 .073-1.527-.594-2.527-2-3-1.553-1.885-3.553-2.885-6-3 .473-1.406 1.473-2.073 3-2Z" style="opacity:1"/><path fill="#ffdd5e" d="M19.5 18.5c1.447.634 2.113 1.8 2 3.5.113 1.7-.553 2.866-2 3.5 2.123-4.511.79-6.345-4-5.5-1.973 3.758-.973 5.924 3 6.5-1.667 1.333-3.333 1.333-5 0-.163-2.357.003-4.69.5-7 1.7-.906 3.533-1.24 5.5-1Z" style="opacity:1"/><path fill="#fed63f" d="M7.5 19.5h2c-.227 2.938.773 5.271 3 7 1.052 1.756 2.719 2.423 5 2-1.068.934-2.401 1.268-4 1-2.174-.25-3.84-1.25-5-3-.968-2.107-1.302-4.44-1-7Z" style="opacity:.827"/><path fill="#ffdb55" d="M15.5 16.5c1.983-.343 3.317.323 4 2-1.967-.24-3.8.094-5.5 1a24.939 24.939 0 0 0-.5 7h-1c-2.227-1.729-3.227-4.062-3-7 2.284-.475 4.284-1.475 6-3Z" style="opacity:1"/><path fill="#fdd029" d="M40.5 18.5c.667 0 1 .333 1 1 .447 2.51-.22 4.51-2 6h-8c-1.773-.814-2.273-2.148-1.5-4 1.011-.837 2.178-1.17 3.5-1l7-2Z" style="opacity:1"/><path fill="#ffdf67" d="M19.5 25.5c-.667 0-1 .333-1 1-3.973-.576-4.973-2.742-3-6.5 4.79-.845 6.123.989 4 5.5Z" style="opacity:1"/><path fill="#ebac1c" d="M32.5 18.5h8l-7 2c-1.322-.17-2.489.163-3.5 1-.773 1.852-.273 3.186 1.5 4a6.541 6.541 0 0 1-3 3c0-.667-.333-1-1-1-.393-3.013.274-5.68 2-8 1.291.237 2.291-.096 3-1Z" style="opacity:1"/><path fill="#ffdb55" d="M33.5 20.5c3.74-.901 5.74.432 6 4a18.436 18.436 0 0 1-6-.5c-1.184-1.145-1.184-2.312 0-3.5Z" style="opacity:1"/><path fill="#f9c827" d="M7.5 19.5c-.302 2.56.032 4.893 1 7-.16 1.7.006 3.366.5 5 1.387 1.236 2.554 2.57 3.5 4-3.181-.388-5.848-1.722-8-4a60.937 60.937 0 0 1 .5-11c.67-.752 1.504-1.086 2.5-1Z" style="opacity:1"/><path fill="#feda4b" d="M18.5 14.5c2.447.115 4.447 1.115 6 3 .424 5.496-1.909 9.163-7 11-2.281.423-3.948-.244-5-2h1c1.667 1.333 3.333 1.333 5 0 0-.667.333-1 1-1 1.447-.634 2.113-1.8 2-3.5.113-1.7-.553-2.866-2-3.5-.683-1.677-2.017-2.343-4-2 .473-1.406 1.473-2.073 3-2Z" style="opacity:1"/><path fill="#fbcc29" d="M31.5 25.5h8c.61 1.934 1.61 3.6 3 5 0 .667-.333 1-1 1-1.903.296-3.57.962-5 2h-8c1.062-1.6 1.062-3.266 0-5a6.541 6.541 0 0 0 3-3Z" style="opacity:1"/><path fill="#f2b316" d="M41.5 19.5c.982 3.462 1.315 7.129 1 11-1.39-1.4-2.39-3.066-3-5 1.78-1.49 2.447-3.49 2-6Z" style="opacity:.776"/><path fill="#fed331" d="M8.5 26.5c1.16 1.75 2.826 2.75 5 3 .88 1.889.88 3.889 0 6h-1c-.946-1.43-2.113-2.764-3.5-4-.494-1.634-.66-3.3-.5-5Z" style="opacity:1"/><path fill="#fdd338" d="M24.5 17.5c1.406.473 2.073 1.473 2 3a147.59 147.59 0 0 0-3 14c-.247 1.213-.914 1.88-2 2-.545-3.444-2.545-4.611-6-3.5-.752.67-1.086 1.504-1 2.5h-1c.88-2.111.88-4.111 0-6 1.599.268 2.932-.066 4-1 5.091-1.837 7.424-5.504 7-11Z" style="opacity:1"/><path fill="#ffdd5c" d="M32.5 28.5h6v3h-6v-3Z" style="opacity:1"/><path fill="#f8c72c" d="M27.5 19.5h2c-1.726 2.32-2.393 4.987-2 8h-1c-.961 1.765-1.295 3.765-1 6-.934 1.068-1.268 2.401-1 4a20.68 20.68 0 0 1-9 .5c-.88-.708-1.547-1.542-2-2.5h1c2.083 2.104 4.416 2.438 7 1 1.086-.12 1.753-.787 2-2a147.59 147.59 0 0 1 3-14c.667 0 1-.333 1-1Z" style="opacity:1"/><path fill="#f2b416" d="M41.5 31.5c.285 1.915-.049 3.581-1 5-.194-2.412-1.527-3.412-4-3 1.43-1.038 3.097-1.704 5-2Z" style="opacity:.635"/><path fill="#fed84d" d="M21.5 36.5c-2.584 1.438-4.917 1.104-7-1-.086-.996.248-1.83 1-2.5 3.455-1.111 5.455.056 6 3.5Z" style="opacity:1"/><path fill="#fdd02d" d="M28.5 33.5h8c2.473-.412 3.806.588 4 3 0 .667-.333 1-1 1h-3v-3h-6v3h-1c-2.12-.903-2.454-2.237-1-4Z" style="opacity:1"/><path fill="#ffdb55" d="M36.5 37.5h-6v-3h6v3Z" style="opacity:1"/><path fill="#f4ba1c" d="M4.5 31.5c2.152 2.278 4.819 3.612 8 4h1c.453.958 1.12 1.792 2 2.5a20.68 20.68 0 0 0 9-.5c-.268-1.599.066-2.932 1-4 .16 1.7-.006 3.366-.5 5-.417 1.256-1.25 1.923-2.5 2-3.497-.903-7.163-1.57-11-2a51.638 51.638 0 0 0-7-1v-6Z" style="opacity:1"/><path fill="#efb320" d="M26.5 27.5c.418 5.422.418 10.422 0 15h-3l-1-2c1.25-.077 2.083-.744 2.5-2 .494-1.634.66-3.3.5-5-.295-2.235.039-4.235 1-6Z" style="opacity:1"/><path fill="#fac622" d="M29.5 38.5v-1h10c.24 2.534-.76 4.2-3 5 .237-1.291-.096-2.291-1-3-1.765-.961-3.765-1.295-6-1Z" style="opacity:1"/><path fill="#e9a81b" d="M26.5 27.5h1c.667 0 1 .333 1 1 1.062 1.734 1.062 3.4 0 5-1.454 1.763-1.12 3.097 1 4v1c-2.12.903-2.454 2.237-1 4h-2c.418-4.578.418-9.578 0-15Z" style="opacity:1"/><path fill="#eead14" d="M11.5 38.5c3.837.43 7.503 1.097 11 2l1 2a32.437 32.437 0 0 1-8-.5c-1.824-.66-3.157-1.827-4-3.5Z" style="opacity:.904"/><path fill="#fed027" d="M29.5 38.5c2.235-.295 4.235.039 6 1 .904.709 1.237 1.709 1 3-2.667 1.333-5.333 1.333-8 0-1.454-1.763-1.12-3.097 1-4Z" style="opacity:.265"/><path fill="#ffdb54" d="M35.5 39.5c.016 1.984-.984 2.984-3 3-1.5.047-2.5-.62-3-2a9.864 9.864 0 0 1 6-1Z" style="opacity:1"/></svg>