<svg xmlns="http://www.w3.org/2000/svg" width="48" height="48" style="shape-rendering:geometricPrecision;text-rendering:geometricPrecision;image-rendering:optimizeQuality;fill-rule:evenodd;clip-rule:evenodd"><path fill="#f8c321" d="M20.5 13.5c-1-.333-1.667-1-2-2v-2a72.438 72.438 0 0 0 12-.5 48.167 48.167 0 0 1-5-2.5l1-2c-1.545-.952-3.212-1.285-5-1 2.637-1.927 5.637-2.427 9-1.5 3.827 2.905 3.827 5.905 0 9-2.366.563-4.7.396-7-.5-1.675.368-2.675 1.368-3 3Z" style="opacity:1"/><path fill="#fed231" d="M21.5 3.5c1.788-.285 3.455.048 5 1l-1 2c1.613.927 3.28 1.76 5 2.5a72.438 72.438 0 0 1-12 .5c-1.461 1.186-2.795 1.186-4 0 1.72-2.72 4.053-4.72 7-6Z" style="opacity:1"/><path fill="#ffd639" d="M18.5 11.5c.333 1 1 1.667 2 2-.432 1.21-1.099 2.21-2 3a59.594 59.594 0 0 1-6.5 5 32.437 32.437 0 0 0-.5 8c-2.7-7.937-.366-13.937 7-18Z" style="opacity:1"/><path fill="#fed12a" d="M14.5 9.5c1.205 1.186 2.539 1.186 4 0v2c-7.366 4.063-9.7 10.063-7 18v4a49.565 49.565 0 0 1-3-7 7.291 7.291 0 0 0-2 3c.826.951.992 1.951.5 3a51.22 51.22 0 0 1-2.5-4c2.043-7.089 5.376-13.422 10-19Z" style="opacity:1"/><path fill="#fedc59" d="M18.5 16.5c-.595 2.846-.595 5.846 0 9-2.475 1.187-3.475 3.187-3 6-1.459.067-2.792-.266-4-1v-1a32.437 32.437 0 0 1 .5-8 59.594 59.594 0 0 0 6.5-5Z" style="opacity:1"/><path fill="#fccd26" d="M32.5 26.5c4.067-.294 7.4 1.04 10 4-1.195 3.21-3.195 3.876-6 2v-4c-1.88.27-3.213-.396-4-2Z" style="opacity:.81"/><path fill="#ffd94c" d="M32.5 26.5c.787 1.604 2.12 2.27 4 2v4h-2c.304-.65.637-1.317 1-2-3.284-1.157-6.618-1.324-10-.5-1.456.423-1.956 1.256-1.5 2.5 3.131 1.2 6.298 1.2 9.5 0-.11.617-.444 1.117-1 1.5a25.249 25.249 0 0 1-10 0c-1.593-.949-2.926-2.115-4-3.5 4.31-3.187 8.977-4.52 14-4Z" style="opacity:.997"/><path fill="#ffde63" d="M34.5 32.5h-1c-3.202 1.2-6.369 1.2-9.5 0-.456-1.244.044-2.077 1.5-2.5 3.382-.824 6.716-.657 10 .5-.363.683-.696 1.35-1 2Z" style="opacity:1"/><path fill="#f4b918" d="M42.5 30.5c2.567 8.005-.433 12.838-9 14.5-5.516.817-10.85.65-16-.5 1.006-.438 1.006-1.104 0-2 5.348 1.985 10.681 1.485 16-1.5 4.072-3.354 3.572-4.187-1.5-2.5-1.681-.108-2.848-.775-3.5-2 3.182-.448 5.849-1.782 8-4 2.805 1.876 4.805 1.21 6-2Z" style="opacity:.986"/><path fill="#f7c11d" d="M11.5 33.5v2c-.543.06-.876.393-1 1 1.357 1.686 2.69 3.352 4 5-4.725-1.037-8.391-3.704-11-8-.284-1.915.049-3.581 1-5a51.22 51.22 0 0 0 2.5 4c.492-1.049.326-2.049-.5-3a7.291 7.291 0 0 1 2-3 49.565 49.565 0 0 0 3 7Z" style="opacity:1"/><path fill="#fdd232" d="M18.5 25.5v5c1.074 1.385 2.407 2.551 4 3.5 3.333.667 6.667.667 10 0 .556-.383.89-.883 1-1.5h3c-2.151 2.218-4.818 3.552-8 4-1.548.321-2.215 1.321-2 3-1.548-.321-2.215-1.321-2-3-3.415.239-6.581-.428-9.5-2-1.326.255-2.326.922-3 2-.399-.228-.565-.562-.5-1v-5c1.208.734 2.541 1.067 4 1-.475-2.813.525-4.813 3-6Z" style="opacity:1"/><path fill="#f1b314" d="M3.5 33.5c2.609 4.296 6.275 6.963 11 8h1c.342.838 1.008 1.172 2 1 1.006.896 1.006 1.562 0 2a114.313 114.313 0 0 0-12-3c-1.729-2.351-2.396-5.018-2-8Z" style="opacity:.791"/><path fill="#fccc24" d="M26.5 39.5c6.438.087 6.438.92 0 2.5-3.67.28-7.337.112-11-.5h-1c-1.31-1.648-2.643-3.314-4-5 .124-.607.457-.94 1-1-.065.438.101.772.5 1 .674-1.078 1.674-1.745 3-2 2.919 1.572 6.085 2.239 9.5 2-.215 1.679.452 2.679 2 3Z" style="opacity:1"/><path fill="#f8c31f" d="M28.5 36.5c.652 1.225 1.819 1.892 3.5 2 5.072-1.687 5.572-.854 1.5 2.5-5.319 2.985-10.652 3.485-16 1.5-.992.172-1.658-.162-2-1 3.663.612 7.33.78 11 .5 6.438-1.58 6.438-2.413 0-2.5-.215-1.679.452-2.679 2-3Z" style="opacity:1"/></svg>