<svg xmlns="http://www.w3.org/2000/svg" width="48" height="48" style="shape-rendering:geometricPrecision;text-rendering:geometricPrecision;image-rendering:optimizeQuality;fill-rule:evenodd;clip-rule:evenodd"><path fill="#fccc26" d="M30.5 5.5c1.46 3.204 1.96 6.538 1.5 10a22.763 22.763 0 0 0-4-5c.044 1.778.71 3.445 2 5a75.885 75.885 0 0 1 .5 20c-1.105 2.111-2.771 3.445-5 4 3.657-4.354 4.824-9.354 3.5-15-1.451-2.803-3.618-4.803-6.5-6a77.03 77.03 0 0 1-4.5-15c.837-1.507 2.004-2.007 3.5-1.5A25.556 25.556 0 0 1 27 8.5c.422-1.926 1.59-2.926 3.5-3Z" style="opacity:1"/><path fill="#f7c01e" d="M30.5 5.5c1.636 1.249 2.803 2.916 3.5 5 2.108-1.112 3.608-.446 4.5 2a345.557 345.557 0 0 0-2 8 14.974 14.974 0 0 0-3.5-3 45.982 45.982 0 0 0 .5 12c-.999 10.227-6.666 14.227-17 12-6.336-1.952-9.003-6.286-8-13 .825 2.31 2.158 4.31 4 6 3.393 3.803 7.727 5.47 13 5 2.229-.555 3.895-1.889 5-4 .717-6.644.55-13.31-.5-20-1.29-1.555-1.956-3.222-2-5a22.763 22.763 0 0 1 4 5c.46-3.462-.04-6.796-1.5-10Z" style="opacity:1"/><path fill="#f0b014" d="M38.5 12.5a262.742 262.742 0 0 1-1.5 28L34.5 43a64.247 64.247 0 0 1-16 0c-.916-.278-1.582-.778-2-1.5 10.334 2.227 16.001-1.773 17-12a45.982 45.982 0 0 1-.5-12 14.974 14.974 0 0 1 3.5 3 345.557 345.557 0 0 1 2-8Z" style="opacity:1"/><path fill="#fdd02c" d="M22.5 18.5c2.882 1.197 5.049 3.197 6.5 6 1.324 5.646.157 10.646-3.5 15-5.273.47-9.607-1.197-13-5 10.116 3.719 13.616.385 10.5-10 .355 1.46.189 2.793-.5 4-1.612-3.76-4.279-4.76-8-3h-4c.086-.996-.248-1.83-1-2.5 3.834-3.443 8.167-4.943 13-4.5Z" style="opacity:1"/><path fill="#fed846" d="M12.5 34.5c-1.842-1.69-3.175-3.69-4-6 .432-1.21 1.099-2.21 2-3h4a14.965 14.965 0 0 0 3 6.5c2.868.64 4.535-.527 5-3.5.689-1.207.855-2.54.5-4 3.116 10.385-.384 13.719-10.5 10Z" style="opacity:1"/></svg>