<svg xmlns="http://www.w3.org/2000/svg" width="48" height="48" style="shape-rendering:geometricPrecision;text-rendering:geometricPrecision;image-rendering:optimizeQuality;fill-rule:evenodd;clip-rule:evenodd"><path fill="#fed32a" d="M25.5 9.5c-1.212-.73-2.212-1.73-3-3-.765 1.112-1.765 1.779-3 2a27.571 27.571 0 0 0 1.5-5c1.333-1.333 2.667-1.333 4 0 .495 1.973.662 3.973.5 6Z" style="opacity:.843"/><path fill="#fed427" d="M34.5 13.5c-.433-2.759-2.1-4.092-5-4 .906-2.414 2.572-3.247 5-2.5 1.268 2.163 1.268 4.33 0 6.5Z" style="opacity:.92"/><path fill="#ffd94a" d="M25.5 9.5v4c-1.466-.847-2.3-2.18-2.5-4-1.459 1.932-2.625 3.932-3.5 6v-7c1.235-.221 2.235-.888 3-2 .788 1.27 1.788 2.27 3 3Z" style="opacity:1"/><path fill="#ffdc5a" d="M25.5 13.5a32.437 32.437 0 0 0 .5 8c.878-3.552 2.044-6.886 3.5-10 .405 1.05 1.071 1.05 2 0l1 2.5a117.258 117.258 0 0 0-2 8.5h-15c-1.166-3.33-1.166-6.663 0-10 .765 1.112 1.765 1.779 3 2-.163 2.357.003 4.69.5 7 .495-1.973.662-3.973.5-6 .875-2.068 2.041-4.068 3.5-6 .2 1.82 1.034 3.153 2.5 4Z" style="opacity:1"/><path fill="#fac822" d="M10.5 13.5a5.577 5.577 0 0 1-3-1c-1.06 3.345-.892 6.678.5 10 2.394.636 4.894.636 7.5 0h8l-8 2h-6c-.107 2.403.893 4.236 3 5.5-.916.278-1.582.778-2 1.5v3c-1.694-1.027-3.027-2.36-4-4a200.524 200.524 0 0 1-1.5-20c3.033-1.499 4.866-.499 5.5 3Z" style="opacity:.92"/><path fill="#fed434" d="M18.5 14.5c-1.235-.221-2.235-.888-3-2-1.166 3.337-1.166 6.67 0 10-2.606.636-5.106.636-7.5 0-1.392-3.322-1.56-6.655-.5-10 .917.627 1.917.96 3 1a52.55 52.55 0 0 0 1.5 7c.17-5.364.67-10.698 1.5-16 1.406-1.168 2.572-.835 3.5 1a70.527 70.527 0 0 1 1.5 9Z" style="opacity:.751"/><path fill="#fed53f" d="M29.5 9.5c2.9-.092 4.567 1.241 5 4a58.35 58.35 0 0 1-3 11.5c.228.399.562.565 1 .5-.453.958-1.12 1.792-2 2.5-2.56.384-4.894 1.217-7 2.5h-1c-1.862-.892-3.862-1.059-6-.5l2-2c-1.926-.422-2.926-1.59-3-3.5l8-2h7a117.258 117.258 0 0 1 2-8.5l-1-2.5c-.929 1.05-1.595 1.05-2 0v-2Z" style="opacity:1"/><path fill="#fed12a" d="M15.5 24.5c.074 1.91 1.074 3.078 3 3.5l-2 2c2.138-.559 4.138-.392 6 .5-1.393 2.517-3.393 4.184-6 5-1.302-2.322-3.302-3.655-6-4 .418-.722 1.084-1.222 2-1.5-2.107-1.264-3.107-3.097-3-5.5h6Z" style="opacity:1"/><path fill="#fed230" d="M37.5 22.5c1.074.75 1.24 1.75.5 3a60.43 60.43 0 0 0-5.5 8c-1.287 1.029-2.454.695-3.5-1-2.506.494-4.339 1.828-5.5 4-.978-.311-1.645-.978-2-2 1.13-1.122 1.797-2.456 2-4 2.106-1.283 4.44-2.116 7-2.5.88-.708 1.547-1.542 2-2.5a18.941 18.941 0 0 0 5-3Z" style="opacity:1"/><path fill="#f1b316" d="M44.5 23.5a112.643 112.643 0 0 1-10.5 17 11.529 11.529 0 0 1-4.5 3.5 90.496 90.496 0 0 1-19 0c-2.952-3.968-4.286-8.468-4-13.5.973 1.64 2.306 2.973 4 4-.05 5.345 1.95 6.678 6 4 3.225-.09 6.225.577 9 2 7.098-1.422 11.765-5.755 14-13a83.44 83.44 0 0 1 5-4Z" style="opacity:.985"/><path fill="#f8c735" d="M10.5 31.5c2.698.345 4.698 1.678 6 4v3c-4.05 2.678-6.05 1.345-6-4v-3Z" style="opacity:1"/><path fill="#f8c321" d="M37.5 22.5c.774-.647 1.774-.98 3-1 1.855-.16 3.188.507 4 2a83.44 83.44 0 0 0-5 4c-2.235 7.245-6.902 11.578-14 13-2.775-1.423-5.775-2.09-9-2v-3c2.607-.816 4.607-2.483 6-5h1c-.203 1.544-.87 2.878-2 4 .355 1.022 1.022 1.689 2 2v3a17.759 17.759 0 0 0 7-1.5c1.537-1.11 2.203-2.61 2-4.5a60.43 60.43 0 0 1 5.5-8c.74-1.25.574-2.25-.5-3Z" style="opacity:1"/><path fill="#fbd142" d="M32.5 33.5c.203 1.89-.463 3.39-2 4.5a17.759 17.759 0 0 1-7 1.5v-3c1.161-2.172 2.994-3.506 5.5-4 1.046 1.695 2.213 2.029 3.5 1Z" style="opacity:1"/></svg>