<svg xmlns="http://www.w3.org/2000/svg" width="48" height="48" style="shape-rendering:geometricPrecision;text-rendering:geometricPrecision;image-rendering:optimizeQuality;fill-rule:evenodd;clip-rule:evenodd"><path fill="#f2b617" d="M38.5 9.5c-6.813-.936-13.813-.936-21 0v-1a21.217 21.217 0 0 1 7-2c3.347 1.205 6.68 1.205 10 0 2.153.061 3.486 1.061 4 3Z" style="opacity:.559"/><path fill="#f7c220" d="M38.5 9.5c.901.79 1.568 1.79 2 3 .27 1.88-.396 3.213-2 4v-4c-2.042-2.09-4.375-2.424-7-1h-2c-6-2.016-12-1.35-18 2v-1c1.53-1.847 3.53-2.846 6-3 7.187-.936 14.187-.936 21 0Z" style="opacity:1"/><path fill="#fbdd79" d="M38.5 12.5c-2.56.302-4.893-.032-7-1 2.625-1.424 4.958-1.09 7 1Z" style="opacity:1"/><path fill="#f0ae13" d="M17.5 8.5v1c-2.47.154-4.47 1.153-6 3a25.49 25.49 0 0 0-7 5 9.106 9.106 0 0 1 1-5 126.532 126.532 0 0 1 12-4Z" style="opacity:.999"/><path fill="#fbca21" d="M29.5 11.5c0 .667-.333 1-1 1-3.14-1.14-6.473-1.307-10-.5-1.82.2-3.153 1.034-4 2.5-2.952.859-4.785 2.859-5.5 6-.52 1.789-.187 3.456 1 5 .278-.916.778-1.582 1.5-2v6c-1.835-.622-3.002-1.956-3.5-4a24.936 24.936 0 0 1-.5-7 808.713 808.713 0 0 0 4-5c6-3.35 12-4.016 18-2Z" style="opacity:1"/><path fill="#fed127" d="M28.5 12.5v1c-4.91-.38-9.576.287-14 2v-1c.847-1.466 2.18-2.3 4-2.5 3.527-.807 6.86-.64 10 .5Z" style="opacity:1"/><path fill="#ffd536" d="M28.5 13.5v1a32.437 32.437 0 0 0-8 .5c-.556.383-.89.883-1 1.5-2.055 1.059-3.389 2.725-4 5v6l-2-1c-.177-3.734.156-7.4 1-11 4.424-1.713 9.09-2.38 14-2Z" style="opacity:1"/><path fill="#fdd955" d="M30.5 11.5h1c2.107.968 4.44 1.302 7 1v1c-2.333 1.333-4.667 1.333-7 0-.838-.342-1.172-1.008-1-2Z" style="opacity:1"/><path fill="#f6bc1a" d="M11.5 12.5v1a808.713 808.713 0 0 1-4 5c-1.844 1.779-2.51 4.112-2 7-.973-2.448-1.306-5.115-1-8a25.49 25.49 0 0 1 7-5Z" style="opacity:1"/><path fill="#fbcc25" d="M14.5 14.5v1a39.704 39.704 0 0 0-1 11c-.802-1.452-1.302-3.118-1.5-5a2.428 2.428 0 0 0-.5 2c-.722.418-1.222 1.084-1.5 2-1.187-1.544-1.52-3.211-1-5 .715-3.141 2.548-5.141 5.5-6Z" style="opacity:1"/><path fill="#fed63d" d="M28.5 14.5c.432 1.21 1.099 2.21 2 3v1h-1c-3.005-1.8-6.338-2.466-10-2 .11-.617.444-1.117 1-1.5a32.437 32.437 0 0 1 8-.5Z" style="opacity:1"/><path fill="#f7c21c" d="M7.5 18.5c-.163 2.357.003 4.69.5 7 .498 2.044 1.665 3.378 3.5 4-1.068.934-2.401 1.268-4 1-1.431-1.28-2.098-2.947-2-5-.51-2.888.156-5.221 2-7Z" style="opacity:.964"/><path fill="#fbd345" d="M19.5 16.5c3.662-.466 6.995.2 10 2 .39 3.053-.277 5.72-2 8a16.869 16.869 0 0 0-1-8c-2.262-1.673-3.928-1.34-5 1v11l-2-8c.792-1.467.792-2.8 0-4a493.061 493.061 0 0 1-4 3c.611-2.275 1.945-3.941 4-5Z" style="opacity:1"/><path fill="#ffde60" d="M21.5 19.5h5c.285 1.788-.048 3.455-1 5a6.845 6.845 0 0 0-4-1v-4Z" style="opacity:1"/><path fill="#c78209" d="M36.5 21.5c-2.333.333-3.667 1.667-4 4-1.107-3.12.226-4.953 4-5.5-1.237-.232-2.237-.732-3-1.5 1.967.24 3.8-.094 5.5-1 .536 2.115-.297 3.448-2.5 4Z" style="opacity:1"/><path fill="#b97106" d="M30.5 17.5c.891.61 1.891.943 3 1 .763.768 1.763 1.268 3 1.5-3.774.547-5.107 2.38-4 5.5a22.853 22.853 0 0 0 4 3c.086.996-.248 1.83-1 2.5-1.634.494-3.3.66-5 .5v-14Z" style="opacity:1"/><path fill="#e0a115" d="M29.5 11.5h1c-.172.992.162 1.658 1 2 .762 4.048 3.096 5.048 7 3 1.604-.787 2.27-2.12 2-4 .758 2.482.758 5.148 0 8-1.436.929-2.77 2.095-4 3.5.556.383.89.883 1 1.5-1.175.219-2.175-.114-3-1a186.2 186.2 0 0 0 2-3c2.203-.552 3.036-1.885 2.5-4-1.7.906-3.533 1.24-5.5 1a5.728 5.728 0 0 1-3-1c-.901-.79-1.568-1.79-2-3v-2c.667 0 1-.333 1-1Z" style="opacity:1"/><path fill="#fbcd2c" d="M31.5 13.5c2.333 1.333 4.667 1.333 7 0v3c-3.904 2.048-6.238 1.048-7-3Z" style="opacity:1"/><path fill="#feda52" d="M19.5 22.5v6c-1.695 1.326-3.028.993-4-1v-6a493.061 493.061 0 0 0 4-3c.792 1.2.792 2.533 0 4Z" style="opacity:1"/><path fill="#ffdb53" d="M27.5 26.5v3c-2.488-.183-4.488-1.183-6-3v-3a6.845 6.845 0 0 1 4 1c.952-1.545 1.285-3.212 1-5h-5c1.072-2.34 2.738-2.673 5-1a16.869 16.869 0 0 1 1 8Z" style="opacity:1"/><path fill="#d79610" d="M36.5 21.5a186.2 186.2 0 0 1-2 3c.825.886 1.825 1.219 3 1 .838.342 1.172 1.008 1 2-.667 0-1 .333-1 1h-1a22.853 22.853 0 0 1-4-3c.333-2.333 1.667-3.667 4-4Z" style="opacity:1"/><path fill="#f2b818" d="M40.5 20.5c1.49 2.686 2.157 5.686 2 9 .157 3.314-.51 6.314-2 9-.702-.616-1.702-.616-3 0v-1c3.67-1.938 4.836-4.938 3.5-9-.67-.752-1.504-1.086-2.5-1 .172-.992-.162-1.658-1-2-.11-.617-.444-1.117-1-1.5 1.23-1.405 2.564-2.571 4-3.5Z" style="opacity:1"/><path fill="#fdd12d" d="M21.5 26.5c1.512 1.817 3.512 2.817 6 3-1.485 1.73-3.485 2.73-6 3v-6Z" style="opacity:1"/><path fill="#f7c325" d="M29.5 18.5h1v8c-.838.342-1.172 1.008-1 2-.951 1.419-1.285 3.085-1 5-2.56.302-4.893-.032-7-1 2.515-.27 4.515-1.27 6-3v-3c1.723-2.28 2.39-4.947 2-8Z" style="opacity:1"/><path fill="#fbcb2a" d="m13.5 26.5 2 1c.972 1.993 2.305 2.326 4 1v5h-5a21.445 21.445 0 0 1-1-7Z" style="opacity:1"/><path fill="#e8a814" d="M13.5 26.5a21.445 21.445 0 0 0 1 7c-3.13.592-5.464-.408-7-3 1.599.268 2.932-.066 4-1v-6a2.428 2.428 0 0 1 .5-2c.198 1.882.698 3.548 1.5 5Z" style="opacity:.996"/><path fill="#ecac14" d="m19.5 22.5 2 8v2c2.107.968 4.44 1.302 7 1-.285-1.915.049-3.581 1-5 .256 2.293-.077 4.46-1 6.5a2.428 2.428 0 0 0 2 .5c0 .667-.333 1-1 1a8.95 8.95 0 0 0-4 3 70.679 70.679 0 0 1-2-4 91.482 91.482 0 0 0-8-.5c-.556-.383-.89-.883-1-1.5h5v-11Z" style="opacity:.913"/><path fill="#dc9c10" d="M30.5 26.5v5c1.7.16 3.366-.006 5-.5.752-.67 1.086-1.504 1-2.5h1c.134 1.791-.2 3.458-1 5l-6 2a2.428 2.428 0 0 1-2-.5c.923-2.04 1.256-4.207 1-6.5-.172-.992.162-1.658 1-2Z" style="opacity:1"/><path fill="#fbcb22" d="M38.5 27.5c.996-.086 1.83.248 2.5 1 1.336 4.062.17 7.062-3.5 9-1.7.16-3.366-.007-5-.5 1.824-.66 3.157-1.827 4-3.5.8-1.542 1.134-3.209 1-5 0-.667.333-1 1-1Z" style="opacity:1"/><path fill="#f6c11d" d="M36.5 33.5c-.843 1.673-2.176 2.84-4 3.5 1.634.493 3.3.66 5 .5v1c-3.198.536-5.865-.131-8-2 .667 0 1-.333 1-1l6-2Z" style="opacity:1"/><path fill="#f2b315" d="M29.5 36.5c2.135 1.869 4.802 2.536 8 2 1.298-.616 2.298-.616 3 0-4.805.987-9.805 1.32-15 1a8.95 8.95 0 0 1 4-3Z" style="opacity:.51"/></svg>