<!-- Generated by IcoMoon.io -->
<svg version="1.1" xmlns="http://www.w3.org/2000/svg" width="32" height="32" viewBox="0 0 32 32">
<title>finger-pointing-right</title>
<path fill="#ffd536" opacity="0.957" d="M17 9c-4.043-1.447-6.709-0.002-8 4.333 0.87 3.867 3.315 5.978 7.333 6.333-0.080 0.724-0.525 1.169-1.333 1.333-3.645 0.291-5.979-1.265-7-4.667-0.238-1.204-0.374-2.589-0.374-4.005 0-0.467 0.015-0.931 0.044-1.391l-0.003 0.063c1.503-1.389 3.134-2.702 4.851-3.902l0.149-0.098c0.344-1.833 1.122-3.389 2.333-4.667 1.089 0.312 1.867 0.979 2.333 2 0.531 1.693 0.42 3.248-0.333 4.667z"></path>
<path fill="#fed12c" opacity="0.988" d="M7.667 11c-0.026 0.397-0.041 0.861-0.041 1.328 0 1.416 0.136 2.801 0.396 4.141l-0.022-0.136c1.021 3.402 3.355 4.957 7 4.667 0.809-0.165 1.253-0.609 1.333-1.333 2.924 0.617 4.48-0.494 4.667-3.333-0.233 1.693-0.233 3.249 0 4.667-0.512 0.509-0.845 1.175-1 2-0.447 0.501-1.003 0.724-1.667 0.667-3.464-0.705-6.797-1.927-10-3.667-2.115-2.121-3.004-4.676-2.667-7.667l2-1.333z"></path>
<path fill="#fdcf28" opacity="0.835" d="M23.667 12.333c2.233-0.11 4.455 0.001 6.667 0.333 0.587 0.904 0.809 1.904 0.667 3-1.993 0.429-4.282 0.674-6.629 0.674-0.248 0-0.495-0.003-0.741-0.008l0.037 0.001v-4z"></path>
<path fill="#fccc22" d="M5.667 12.333c-0.337 2.991 0.552 5.546 2.667 7.667 3.203 1.739 6.536 2.961 10 3.667-5.945 1.763-10.723-0.014-14.333-5.333-0.619-1.373-0.986-2.975-1-4.661l-0-0.005c0.781-0.563 1.67-1.007 2.667-1.333z"></path>
<path fill="#fed94c" d="M17 9v3.333h6.667v4h-2.667c-0.187 2.839-1.743 3.951-4.667 3.333-4.019-0.355-6.463-2.467-7.333-6.333 1.291-4.335 3.957-5.78 8-4.333z"></path>
<path fill="#efb014" d="M1 13.667c-0.195 4.819 1.805 8.485 6 11 1.772 0.985 3.55 1.763 5.333 2.333-0.347 0.026-0.752 0.041-1.161 0.041-1.242 0-2.452-0.136-3.617-0.394l0.111 0.021c-2.22-1.882-4.664-3.327-7.333-4.333-0.212-3.021 0.010-5.911 0.667-8.667z"></path>
<path fill="#f6bd1c" d="M1 13.667h2c0.014 1.691 0.381 3.294 1.030 4.742l-0.030-0.075c3.611 5.319 8.389 7.097 14.333 5.333 0.664 0.057 1.22-0.165 1.667-0.667 0.155-0.825 0.488-1.491 1-2-0.388 1.665-0.388 3.221 0 4.667-2.676 1.223-5.565 1.667-8.667 1.333-1.783-0.57-3.561-1.348-5.333-2.333-4.195-2.515-6.195-6.181-6-11z"></path>
<path fill="#edab14" opacity="0.979" d="M0.333 22.333c2.669 1.007 5.113 2.451 7.333 4.333 1.54 0.331 3.095 0.442 4.667 0.333 3.102 0.333 5.991-0.111 8.667-1.333 0.113 0.881-0.109 1.659-0.667 2.333-4.445 0.445-8.889 0.445-13.333 0-1.744-1.996-3.967-2.996-6.667-3v-2.667z"></path>
</svg>
