<!-- Generated by IcoMoon.io -->
<svg version="1.1" xmlns="http://www.w3.org/2000/svg" width="32" height="32" viewBox="0 0 32 32">
<title>flexed-biceps</title>
<path fill="#f8c321" d="M13.667 9c-0.667-0.222-1.111-0.667-1.333-1.333v-1.333c0.596 0.026 1.294 0.041 1.996 0.041 2.116 0 4.201-0.136 6.245-0.4l-0.242 0.025c-1.335-0.575-2.43-1.133-3.486-1.749l0.153 0.082 0.667-1.333c-1.030-0.635-2.141-0.857-3.333-0.667 1.758-1.285 3.758-1.618 6-1 2.551 1.937 2.551 3.937 0 6-1.577 0.375-3.133 0.264-4.667-0.333-1.117 0.245-1.783 0.912-2 2z"></path>
<path fill="#fed231" d="M14.333 2.333c1.192-0.19 2.303 0.032 3.333 0.667l-0.667 1.333c1.075 0.618 2.187 1.173 3.333 1.667-1.803 0.239-3.887 0.375-6.003 0.375-0.702 0-1.401-0.015-2.096-0.045l0.099 0.003c-0.974 0.791-1.863 0.791-2.667 0 1.147-1.813 2.702-3.147 4.667-4z"></path>
<path fill="#ffd639" d="M12.333 7.667c0.222 0.667 0.667 1.111 1.333 1.333-0.288 0.807-0.733 1.473-1.333 2-1.293 1.149-2.706 2.245-4.191 3.243l-0.142 0.090c-0.238 1.204-0.374 2.589-0.374 4.005 0 0.467 0.015 0.931 0.044 1.391l-0.003-0.063c-1.8-5.291-0.244-9.291 4.667-12z"></path>
<path fill="#fed12a" d="M9.667 6.333c0.803 0.791 1.693 0.791 2.667 0v1.333c-4.911 2.709-6.467 6.709-4.667 12v2.667c-0.697-1.296-1.373-2.838-1.93-4.435l-0.070-0.232c-0.592 0.534-1.049 1.206-1.323 1.966l-0.011 0.034c0.551 0.634 0.661 1.301 0.333 2-0.515-0.732-1.067-1.603-1.579-2.499l-0.088-0.168c1.362-4.726 3.584-8.948 6.667-12.667z"></path>
<path fill="#fedc59" d="M12.333 11c-0.397 1.897-0.397 3.897 0 6-1.65 0.791-2.317 2.125-2 4-0.973 0.045-1.861-0.177-2.667-0.667v-0.667c-0.026-0.397-0.041-0.861-0.041-1.328 0-1.416 0.136-2.801 0.396-4.141l-0.022 0.136c1.627-1.088 3.041-2.184 4.374-3.369l-0.041 0.036z"></path>
<path fill="#fccd26" opacity="0.81" d="M21.667 17.667c2.711-0.196 4.933 0.693 6.667 2.667-0.797 2.14-2.13 2.584-4 1.333v-2.667c-1.253 0.18-2.142-0.264-2.667-1.333z"></path>
<path fill="#ffd94c" opacity="0.997" d="M21.667 17.667c0.525 1.069 1.413 1.513 2.667 1.333v2.667h-1.333c0.203-0.433 0.425-0.878 0.667-1.333-2.189-0.771-4.412-0.883-6.667-0.333-0.971 0.282-1.304 0.837-1 1.667 2.087 0.8 4.199 0.8 6.333 0-0.073 0.411-0.296 0.745-0.667 1-1.002 0.212-2.154 0.333-3.333 0.333s-2.331-0.121-3.442-0.352l0.109 0.019c-1.062-0.633-1.951-1.41-2.667-2.333 2.873-2.125 5.985-3.013 9.333-2.667z"></path>
<path fill="#ffde63" d="M23 21.667h-0.667c-2.135 0.8-4.246 0.8-6.333 0-0.304-0.829 0.029-1.385 1-1.667 2.255-0.549 4.477-0.438 6.667 0.333-0.242 0.455-0.464 0.9-0.667 1.333z"></path>
<path fill="#f4b918" opacity="0.986" d="M28.333 20.333c1.711 5.337-0.289 8.559-6 9.667-3.677 0.545-7.233 0.433-10.667-0.333 0.671-0.292 0.671-0.736 0-1.333 3.565 1.323 7.121 0.99 10.667-1 2.715-2.236 2.381-2.791-1-1.667-1.121-0.072-1.899-0.517-2.333-1.333 2.121-0.299 3.899-1.188 5.333-2.667 1.87 1.251 3.203 0.807 4-1.333z"></path>
<path fill="#f7c11d" d="M7.667 22.333v1.333c-0.362 0.040-0.584 0.262-0.667 0.667 0.905 1.124 1.793 2.235 2.667 3.333-3.15-0.691-5.594-2.469-7.333-5.333-0.189-1.277 0.033-2.387 0.667-3.333 0.6 1.064 1.152 1.935 1.74 2.778l-0.073-0.111c0.328-0.699 0.217-1.366-0.333-2 0.284-0.794 0.742-1.466 1.329-1.996l0.004-0.004c0.627 1.829 1.303 3.37 2.087 4.845l-0.087-0.179z"></path>
<path fill="#fdd232" d="M12.333 17v3.333c0.716 0.923 1.605 1.701 2.667 2.333 2.222 0.445 4.445 0.445 6.667 0 0.371-0.255 0.593-0.589 0.667-1h2c-1.434 1.479-3.212 2.368-5.333 2.667-1.032 0.214-1.477 0.881-1.333 2-1.032-0.214-1.477-0.881-1.333-2-2.277 0.159-4.387-0.285-6.333-1.333-0.884 0.17-1.551 0.615-2 1.333-0.266-0.152-0.377-0.375-0.333-0.667v-3.333c0.805 0.489 1.694 0.711 2.667 0.667-0.317-1.875 0.35-3.209 2-4z"></path>
<path fill="#f1b314" opacity="0.791" d="M2.333 22.333c1.739 2.864 4.183 4.642 7.333 5.333h0.667c0.228 0.559 0.672 0.781 1.333 0.667 0.671 0.597 0.671 1.041 0 1.333-2.087-0.683-4.774-1.375-7.515-1.92l-0.485-0.080c-1.153-1.567-1.597-3.345-1.333-5.333z"></path>
<path fill="#fccc24" d="M17.667 26.333c4.292 0.058 4.292 0.613 0 1.667-2.447 0.187-4.891 0.075-7.333-0.333h-0.667c-0.873-1.099-1.762-2.209-2.667-3.333 0.083-0.405 0.305-0.627 0.667-0.667-0.043 0.292 0.067 0.515 0.333 0.667 0.449-0.719 1.116-1.163 2-1.333 1.946 1.048 4.057 1.493 6.333 1.333-0.143 1.119 0.301 1.786 1.333 2z"></path>
<path fill="#f8c31f" d="M19 24.333c0.435 0.817 1.213 1.261 2.333 1.333 3.381-1.125 3.715-0.569 1 1.667-3.546 1.99-7.101 2.323-10.667 1-0.661 0.115-1.105-0.108-1.333-0.667 2.442 0.408 4.887 0.52 7.333 0.333 4.292-1.053 4.292-1.609 0-1.667-0.143-1.119 0.301-1.786 1.333-2z"></path>
</svg>
