<!-- Generated by IcoMoon.io -->
<svg version="1.1" xmlns="http://www.w3.org/2000/svg" width="32" height="32" viewBox="0 0 32 32">
<title>hand-with-fingers-splayed</title>
<path fill="#fed32a" opacity="0.843" d="M17 6.333c-0.808-0.487-1.475-1.153-2-2-0.51 0.741-1.177 1.186-2 1.333 0.398-0.944 0.743-2.059 0.98-3.215l0.020-0.119c0.889-0.889 1.778-0.889 2.667 0 0.33 1.315 0.441 2.649 0.333 4z"></path>
<path fill="#fed427" opacity="0.92" d="M23 9c-0.289-1.839-1.4-2.728-3.333-2.667 0.604-1.609 1.715-2.165 3.333-1.667 0.845 1.442 0.845 2.887 0 4.333z"></path>
<path fill="#ffd94a" d="M17 6.333v2.667c-0.977-0.565-1.533-1.453-1.667-2.667-0.973 1.288-1.75 2.621-2.333 4v-4.667c0.823-0.147 1.49-0.592 2-1.333 0.525 0.847 1.192 1.513 2 2z"></path>
<path fill="#ffdc5a" d="M17 9c-0.026 0.397-0.041 0.861-0.041 1.328 0 1.416 0.136 2.801 0.396 4.141l-0.022-0.136c0.585-2.368 1.363-4.591 2.333-6.667 0.27 0.7 0.714 0.7 1.333 0l0.667 1.667c-0.397 1.327-0.859 3.233-1.249 5.166l-0.084 0.501h-10c-0.777-2.22-0.777-4.442 0-6.667 0.51 0.741 1.177 1.186 2 1.333-0.109 1.571 0.002 3.127 0.333 4.667 0.33-1.315 0.441-2.649 0.333-4 0.583-1.379 1.361-2.712 2.333-4 0.133 1.213 0.689 2.102 1.667 2.667z"></path>
<path fill="#fac822" opacity="0.92" d="M7 9c-0.752-0.027-1.441-0.272-2.012-0.675l0.012 0.008c-0.707 2.23-0.595 4.452 0.333 6.667 1.596 0.424 3.263 0.424 5 0h5.333l-5.333 1.333h-4c-0.071 1.602 0.595 2.824 2 3.667-0.611 0.185-1.055 0.519-1.333 1v2c-1.129-0.685-2.018-1.573-2.667-2.667-0.517-3.873-0.877-8.488-0.997-13.162l-0.003-0.172c2.022-0.999 3.244-0.333 3.667 2z"></path>
<path fill="#fed434" opacity="0.751" d="M12.333 9.667c-0.823-0.147-1.49-0.592-2-1.333-0.777 2.225-0.777 4.447 0 6.667-1.737 0.424-3.404 0.424-5 0-0.928-2.215-1.040-4.437-0.333-6.667 0.611 0.418 1.278 0.64 2 0.667 0.262 1.804 0.611 3.381 1.063 4.914l-0.063-0.248c0.113-3.576 0.447-7.132 1-10.667 0.937-0.779 1.715-0.557 2.333 0.667 0.414 1.672 0.767 3.715 0.983 5.798l0.017 0.202z"></path>
<path fill="#fed53f" d="M19.667 6.333c1.933-0.061 3.045 0.827 3.333 2.667-0.454 2.892-1.15 5.473-2.089 7.934l0.089-0.267c0.152 0.266 0.375 0.377 0.667 0.333-0.302 0.639-0.747 1.195-1.333 1.667-1.707 0.256-3.263 0.811-4.667 1.667h-0.667c-1.241-0.595-2.575-0.706-4-0.333l1.333-1.333c-1.284-0.281-1.951-1.060-2-2.333l5.333-1.333h4.667c0.475-2.433 0.936-4.34 1.466-6.217l-0.133 0.551-0.667-1.667c-0.619 0.7-1.063 0.7-1.333 0v-1.333z"></path>
<path fill="#fed12a" d="M10.333 16.333c0.049 1.273 0.716 2.052 2 2.333l-1.333 1.333c1.425-0.373 2.759-0.261 4 0.333-0.929 1.678-2.262 2.789-4 3.333-0.868-1.548-2.201-2.437-4-2.667 0.279-0.481 0.723-0.815 1.333-1-1.405-0.843-2.071-2.065-2-3.667h4z"></path>
<path fill="#fed230" d="M25 15c0.716 0.5 0.827 1.167 0.333 2-1.281 1.564-2.493 3.307-3.564 5.142l-0.103 0.191c-0.858 0.686-1.636 0.463-2.333-0.667-1.671 0.329-2.893 1.219-3.667 2.667-0.652-0.207-1.097-0.652-1.333-1.333 0.753-0.748 1.198-1.637 1.333-2.667 1.404-0.855 2.96-1.411 4.667-1.667 0.587-0.472 1.031-1.028 1.333-1.667 1.277-0.526 2.378-1.199 3.353-2.016l-0.020 0.016z"></path>
<path fill="#f1b316" opacity="0.985" d="M29.667 15.667c-2.191 4.335-4.517 8.047-7.138 11.524l0.138-0.191c-0.784 1.004-1.792 1.798-2.951 2.314l-0.049 0.019c-1.9 0.212-4.102 0.333-6.333 0.333s-4.434-0.121-6.602-0.357l0.268 0.024c-1.968-2.645-2.857-5.645-2.667-9 0.649 1.093 1.537 1.982 2.667 2.667-0.033 3.563 1.3 4.452 4 2.667 2.15-0.060 4.15 0.385 6 1.333 4.732-0.948 7.843-3.837 9.333-8.667 0.983-0.855 2.068-1.729 3.186-2.562l0.147-0.105z"></path>
<path fill="#f8c735" d="M7 21c1.799 0.23 3.132 1.119 4 2.667v2c-2.7 1.785-4.033 0.897-4-2.667v-2z"></path>
<path fill="#f8c321" d="M25 15c0.516-0.431 1.183-0.653 2-0.667 1.237-0.107 2.125 0.338 2.667 1.333-1.265 0.938-2.351 1.812-3.402 2.725l0.068-0.058c-1.49 4.83-4.601 7.719-9.333 8.667-1.85-0.949-3.85-1.393-6-1.333v-2c1.738-0.544 3.071-1.655 4-3.333h0.667c-0.135 1.029-0.58 1.919-1.333 2.667 0.237 0.681 0.681 1.126 1.333 1.333v2c1.691-0.014 3.294-0.381 4.742-1.030l-0.075 0.030c1.025-0.74 1.469-1.74 1.333-3 1.174-2.027 2.386-3.769 3.724-5.405l-0.057 0.072c0.493-0.833 0.383-1.5-0.333-2z"></path>
<path fill="#fbd142" d="M21.667 22.333c0.135 1.26-0.309 2.26-1.333 3-1.373 0.619-2.975 0.986-4.662 1l-0.005 0v-2c0.774-1.448 1.996-2.337 3.667-2.667 0.697 1.13 1.475 1.353 2.333 0.667z"></path>
</svg>
