<!-- Generated by IcoMoon.io -->
<svg version="1.1" xmlns="http://www.w3.org/2000/svg" width="32" height="32" viewBox="0 0 32 32">
<title>heart-hands</title>
<path fill="#f7c021" opacity="0.81" d="M27 6.333v2c-3.065-3.057-6.399-3.391-10-1l4.667 0.667c0.732 0.513 0.732 1.069 0 1.667-2.364-0.277-4.809-0.277-7.333 0-0.527-0.805-1.195-1.473-1.974-1.984l-0.026-0.016c2.333 0.161 2.555-0.395 0.667-1.667-2.886-0.767-5.441-0.212-7.667 1.667-0.478-0.363-0.811-0.807-1-1.333 1.114-1.836 2.781-2.725 5-2.667 2.488 0.050 4.599 0.939 6.333 2.667 2.447-2.333 5.336-3.111 8.667-2.333 1.216 0.44 2.105 1.218 2.667 2.333z"></path>
<path fill="#fbcd30" d="M27 8.333c0.51 2.089 0.955 4.2 1.333 6.333 0.129 1.339-0.316 2.339-1.333 3 0.236-2.758-0.097-5.425-1-8-1.599-1.97-2.599-1.748-3 0.667l-1.333-0.667c0.732-0.598 0.732-1.153 0-1.667l-4.667-0.667c3.601-2.391 6.935-2.057 10 1z"></path>
<path fill="#f9c72a" d="M12.333 7.667c-6.7-0.388-9.367 2.723-8 9.333-1.688-2.303-1.688-4.747 0-7.333l-0.667-0.667c-0.068 0.076-0.936 0.732-1.807 1.384l-0.86 0.616c0.891-1.799 2.006-3.339 3.333-4.667l0-0c0.189 0.527 0.522 0.971 1 1.333 2.225-1.879 4.781-2.434 7.667-1.667 1.888 1.272 1.666 1.827-0.667 1.667z"></path>
<path fill="#f4b930" opacity="0.998" d="M12.333 7.667c0.805 0.527 1.473 1.195 1.984 1.974l0.016 0.026c-5.322-1.013-7.877 1.209-7.667 6.667 0.934 1.507 1.923 2.814 3.020 4.023l-0.020-0.023c-3.348 1.573-5.125 0.463-5.333-3.333-1.367-6.61 1.3-9.721 8-9.333z"></path>
<path fill="#fccc24" opacity="0.979" d="M27 6.333l4.667 5.333v4.667c-2.547 7.224-7.435 9.447-14.667 6.667 1.985-1.311 3.985-2.645 6-4-0.087 0.584 0.135 1.029 0.667 1.333 0.733-0.351 1.618-0.691 2.531-0.965l0.136-0.035c0.501-0.447 0.724-1.003 0.667-1.667 1.017-0.661 1.462-1.661 1.333-3-0.379-2.133-0.823-4.245-1.333-6.333v-2z"></path>
<path fill="#fccc24" opacity="0.976" d="M4.333 17c0.208 3.796 1.985 4.907 5.333 3.333 1.783 0.777 3.317 1.669 4.733 2.713l-0.066-0.047c-7.356 2.747-12.245 0.525-14.667-6.667v-4.667l1.333-0.667c1.731-1.268 2.599-1.924 3.464-2.584l-0.797 0.584 0.667 0.667c-1.688 2.586-1.688 5.030 0 7.333z"></path>
<path fill="#f5bc30" d="M27 17.667c0.057 0.664-0.165 1.22-0.667 1.667-1.049 0.309-1.934 0.649-2.784 1.050l0.117-0.050c-0.531-0.305-0.753-0.749-0.667-1.333 2.667-2.889 2.667-5.778 0-8.667 0.401-2.415 1.401-2.637 3-0.667 0.903 2.575 1.236 5.242 1 8z"></path>
<path fill="#f5bb20" opacity="0.89" d="M31.667 16.333v8.667c-3.119-0.111-6.23 0-9.333 0.333-1.411 0.173-2.523 0.84-3.333 2-1.204 0.238-2.589 0.374-4.005 0.374-0.467 0-0.931-0.015-1.391-0.044l0.063 0.003c0.819-1.007 0.819-2.007 0-3 0.611-0.185 1.055-0.519 1.333-1 0.751-0.033 1.439-0.277 2.013-0.675l-0.013 0.008c7.231 2.78 12.12 0.557 14.667-6.667z"></path>
<path fill="#f5bd24" d="M-0.333 16.333c2.422 7.192 7.311 9.414 14.667 6.667 0.445 0 0.667 0.222 0.667 0.667-0.279 0.481-0.723 0.815-1.333 1 0.819 0.993 0.819 1.993 0 3-1.322-0.823-2.857-1.606-4.46-2.259l-0.207-0.075c-2.101-0.239-4.536-0.375-7.003-0.375-0.82 0-1.636 0.015-2.448 0.045l0.117-0.003v-8.667z"></path>
</svg>
