<!-- Generated by IcoMoon.io -->
<svg version="1.1" xmlns="http://www.w3.org/2000/svg" width="32" height="32" viewBox="0 0 32 32">
<title>index-pointing-at-the-viewer</title>
<path fill="#f2b617" opacity="0.559" d="M25.667 6.333c-4.542-0.624-9.209-0.624-14 0v-0.667c1.358-0.673 2.937-1.145 4.603-1.328l0.063-0.006c2.231 0.803 4.453 0.803 6.667 0 1.435 0.041 2.324 0.707 2.667 2z"></path>
<path fill="#f7c220" d="M25.667 6.333c0.601 0.527 1.045 1.193 1.333 2 0.18 1.253-0.264 2.142-1.333 2.667v-2.667c-1.361-1.393-2.917-1.616-4.667-0.667h-1.333c-4-1.344-8-0.9-12 1.333v-0.667c1.020-1.231 2.353-1.897 4-2 4.791-0.624 9.458-0.624 14 0z"></path>
<path fill="#fbdd79" d="M25.667 8.333c-1.707 0.201-3.262-0.021-4.667-0.667 1.75-0.949 3.305-0.727 4.667 0.667z"></path>
<path fill="#f0ae13" opacity="0.999" d="M11.667 5.667v0.667c-1.647 0.103-2.98 0.769-4 2-1.802 0.883-3.343 1.999-4.665 3.332l-0.001 0.001c-0.014-0.157-0.023-0.339-0.023-0.524 0-1.027 0.255-1.994 0.705-2.842l-0.016 0.033c2.028-0.835 4.688-1.744 7.405-2.521l0.595-0.146z"></path>
<path fill="#fbca21" d="M19.667 7.667c0 0.445-0.222 0.667-0.667 0.667-2.093-0.76-4.315-0.871-6.667-0.333-1.213 0.133-2.102 0.689-2.667 1.667-1.968 0.573-3.19 1.906-3.667 4-0.347 1.193-0.125 2.304 0.667 3.333 0.185-0.611 0.519-1.055 1-1.333v4c-1.223-0.415-2.001-1.304-2.333-2.667-0.238-1.054-0.374-2.264-0.374-3.506 0-0.408 0.015-0.813 0.044-1.214l-0.003 0.054c0.091-0.080 0.964-1.165 1.833-2.253l0.833-1.080c4-2.233 8-2.677 12-1.333z"></path>
<path fill="#fed127" d="M19 8.333v0.667c-3.273-0.253-6.384 0.191-9.333 1.333v-0.667c0.565-0.977 1.453-1.533 2.667-1.667 2.351-0.538 4.573-0.427 6.667 0.333z"></path>
<path fill="#ffd536" d="M19 9v0.667c-0.397-0.026-0.861-0.041-1.328-0.041-1.416 0-2.801 0.136-4.141 0.396l0.136-0.022c-0.371 0.255-0.593 0.589-0.667 1-1.37 0.706-2.259 1.817-2.667 3.333v4l-1.333-0.667c-0.118-2.489 0.104-4.933 0.667-7.333 2.949-1.142 6.060-1.587 9.333-1.333z"></path>
<path fill="#fdd955" d="M20.333 7.667h0.667c1.405 0.645 2.96 0.868 4.667 0.667v0.667c-1.555 0.889-3.111 0.889-4.667 0-0.559-0.228-0.781-0.672-0.667-1.333z"></path>
<path fill="#f6bc1a" d="M7.667 8.333v0.667c-1.703 2.169-2.576 3.254-3.454 4.335l0.787-1.002c-1.229 1.186-1.673 2.741-1.333 4.667-0.649-1.632-0.871-3.41-0.667-5.333 1.323-1.335 2.865-2.45 4.567-3.289l0.1-0.044z"></path>
<path fill="#fbcc25" d="M9.667 9.667v0.667c-0.444 1.814-0.698 3.897-0.698 6.040 0 0.455 0.011 0.907 0.034 1.357l-0.003-0.063c-0.535-0.968-0.868-2.079-1-3.333-0.226 0.276-0.364 0.633-0.364 1.022 0 0.11 0.011 0.218 0.032 0.322l-0.002-0.010c-0.481 0.279-0.815 0.723-1 1.333-0.791-1.029-1.013-2.141-0.667-3.333 0.477-2.094 1.699-3.427 3.667-4z"></path>
<path fill="#fed63d" d="M19 9.667c0.288 0.807 0.733 1.473 1.333 2v0.667h-0.667c-2.003-1.2-4.225-1.644-6.667-1.333 0.073-0.411 0.296-0.745 0.667-1 1.204-0.238 2.589-0.374 4.005-0.374 0.467 0 0.931 0.015 1.391 0.044l-0.063-0.003z"></path>
<path fill="#f7c21c" opacity="0.964" d="M5 12.333c-0.109 1.571 0.002 3.127 0.333 4.667 0.332 1.363 1.11 2.252 2.333 2.667-0.712 0.623-1.601 0.845-2.667 0.667-0.954-0.853-1.399-1.965-1.333-3.333-0.34-1.925 0.104-3.481 1.333-4.667z"></path>
<path fill="#fbd345" d="M13 11c2.441-0.311 4.663 0.133 6.667 1.333 0.26 2.035-0.185 3.813-1.333 5.333 0.049-0.394 0.077-0.85 0.077-1.312 0-1.446-0.273-2.828-0.77-4.098l0.026 0.076c-1.508-1.115-2.619-0.893-3.333 0.667v7.333l-1.333-5.333c0.528-0.978 0.528-1.867 0-2.667-0.069 0.077-0.937 0.733-1.808 1.385l-0.858 0.615c0.407-1.517 1.297-2.627 2.667-3.333z"></path>
<path fill="#ffde60" d="M14.333 13h3.333c0.19 1.192-0.032 2.303-0.667 3.333-0.68-0.424-1.505-0.675-2.389-0.675-0.098 0-0.195 0.003-0.291 0.009l0.013-0.001v-2.667z"></path>
<path fill="#c78209" d="M24.333 14.333c-1.555 0.222-2.445 1.111-2.667 2.667-0.738-2.080 0.151-3.302 2.667-3.667-0.825-0.155-1.491-0.488-2-1 1.311 0.16 2.533-0.063 3.667-0.667 0.357 1.41-0.198 2.299-1.667 2.667z"></path>
<path fill="#b97106" d="M20.333 11.667c0.594 0.407 1.261 0.629 2 0.667 0.509 0.512 1.175 0.845 2 1-2.516 0.365-3.405 1.587-2.667 3.667 0.785 0.738 1.659 1.399 2.598 1.962l0.069 0.038c0.057 0.664-0.165 1.22-0.667 1.667-1.089 0.329-2.2 0.44-3.333 0.333v-9.333z"></path>
<path fill="#e0a115" d="M19.667 7.667h0.667c-0.115 0.661 0.108 1.105 0.667 1.333 0.508 2.699 2.064 3.365 4.667 2 1.069-0.525 1.513-1.413 1.333-2.667 0.505 1.655 0.505 3.432 0 5.333-0.957 0.619-1.847 1.397-2.667 2.333 0.371 0.255 0.593 0.589 0.667 1-0.783 0.146-1.45-0.076-2-0.667 0.173-0.228 0.612-0.88 1.045-1.536l0.288-0.464c1.469-0.368 2.024-1.257 1.667-2.667-1.133 0.604-2.355 0.827-3.667 0.667-0.751-0.033-1.439-0.277-2.013-0.675l0.013 0.008c-0.601-0.527-1.045-1.193-1.333-2v-1.333c0.445 0 0.667-0.222 0.667-0.667z"></path>
<path fill="#fbcd2c" d="M21 9c1.555 0.889 3.111 0.889 4.667 0v2c-2.603 1.365-4.159 0.699-4.667-2z"></path>
<path fill="#feda52" d="M13 15v4c-1.13 0.884-2.019 0.662-2.667-0.667v-4c1.73-1.267 2.598-1.923 3.462-2.583l-0.795 0.583c0.528 0.8 0.528 1.689 0 2.667z"></path>
<path fill="#ffdb53" d="M18.333 17.667v2c-1.659-0.122-2.992-0.789-4-2v-2c0.083-0.005 0.18-0.008 0.278-0.008 0.884 0 1.709 0.251 2.408 0.686l-0.019-0.011c0.635-1.030 0.857-2.141 0.667-3.333h-3.333c0.715-1.56 1.825-1.782 3.333-0.667 0.471 1.193 0.743 2.575 0.743 4.021 0 0.462-0.028 0.918-0.082 1.366l0.005-0.054z"></path>
<path fill="#d79610" d="M24.333 14.333c-0.721 1.12-1.161 1.772-1.606 2.419l0.273-0.419c0.55 0.591 1.217 0.813 2 0.667 0.559 0.228 0.781 0.672 0.667 1.333-0.445 0-0.667 0.222-0.667 0.667h-0.667c-1.008-0.601-1.881-1.262-2.675-2.008l0.008 0.008c0.222-1.555 1.111-2.445 2.667-2.667z"></path>
<path fill="#f2b818" d="M27 13.667c0.993 1.791 1.438 3.791 1.333 6 0.105 2.209-0.34 4.209-1.333 6-0.468-0.411-1.135-0.411-2 0v-0.667c2.447-1.292 3.224-3.292 2.333-6-0.447-0.501-1.003-0.724-1.667-0.667 0.115-0.661-0.108-1.105-0.667-1.333-0.073-0.411-0.296-0.745-0.667-1 0.82-0.937 1.709-1.714 2.667-2.333z"></path>
<path fill="#fdd12d" d="M14.333 17.667c1.008 1.211 2.341 1.878 4 2-0.99 1.153-2.323 1.82-4 2v-4z"></path>
<path fill="#f7c325" d="M19.667 12.333h0.667v5.333c-0.559 0.228-0.781 0.672-0.667 1.333-0.634 0.946-0.857 2.057-0.667 3.333-1.707 0.201-3.262-0.021-4.667-0.667 1.677-0.18 3.010-0.847 4-2v-2c1.149-1.52 1.593-3.298 1.333-5.333z"></path>
<path fill="#fbcb2a" d="M9 17.667l1.333 0.667c0.648 1.329 1.537 1.551 2.667 0.667v3.333h-3.333c-0.425-1.293-0.671-2.782-0.671-4.328 0-0.119 0.001-0.238 0.004-0.357l-0 0.018z"></path>
<path fill="#e8a814" opacity="0.996" d="M9 17.667c-0.003 0.101-0.004 0.22-0.004 0.339 0 1.546 0.245 3.034 0.699 4.429l-0.028-0.101c-2.087 0.395-3.643-0.272-4.667-2 1.066 0.179 1.955-0.044 2.667-0.667v-4c-0.019-0.094-0.030-0.201-0.030-0.311 0-0.389 0.137-0.746 0.366-1.025l-0.002 0.003c0.132 1.255 0.465 2.365 1 3.333z"></path>
<path fill="#ecac14" opacity="0.913" d="M13 15l1.333 5.333v1.333c1.405 0.645 2.96 0.868 4.667 0.667-0.19-1.277 0.033-2.387 0.667-3.333 0.171 1.529-0.051 2.973-0.667 4.333 0.276 0.226 0.633 0.364 1.022 0.364 0.11 0 0.218-0.011 0.322-0.032l-0.010 0.002c0 0.445-0.222 0.667-0.667 0.667-1.087 0.417-1.99 1.106-2.656 1.985l-0.011 0.015c-0.348-0.614-0.793-1.489-1.212-2.379l-0.122-0.288c-1.553-0.176-3.403-0.297-5.274-0.332l-0.060-0.001c-0.371-0.255-0.593-0.589-0.667-1h3.333v-7.333z"></path>
<path fill="#dc9c10" d="M20.333 17.667v3.333c1.133 0.107 2.244-0.004 3.333-0.333 0.501-0.447 0.724-1.003 0.667-1.667h0.667c0.089 1.194-0.133 2.305-0.667 3.333l-4 1.333c-0.094 0.019-0.201 0.030-0.311 0.030-0.389 0-0.746-0.137-1.025-0.366l0.003 0.002c0.615-1.36 0.837-2.805 0.667-4.333-0.115-0.661 0.108-1.105 0.667-1.333z"></path>
<path fill="#fbcb22" d="M25.667 18.333c0.664-0.057 1.22 0.165 1.667 0.667 0.891 2.708 0.113 4.708-2.333 6-1.133 0.107-2.244-0.005-3.333-0.333 1.216-0.44 2.105-1.218 2.667-2.333 0.533-1.028 0.756-2.139 0.667-3.333 0-0.445 0.222-0.667 0.667-0.667z"></path>
<path fill="#f6c11d" d="M24.333 22.333c-0.562 1.115-1.451 1.893-2.667 2.333 1.089 0.329 2.2 0.44 3.333 0.333v0.667c-2.132 0.357-3.91-0.087-5.333-1.333 0.445 0 0.667-0.222 0.667-0.667l4-1.333z"></path>
<path fill="#f2b315" opacity="0.51" d="M19.667 24.333c1.423 1.246 3.201 1.691 5.333 1.333 0.865-0.411 1.532-0.411 2 0-3.203 0.658-6.537 0.88-10 0.667 0.677-0.894 1.58-1.583 2.626-1.986l0.041-0.014z"></path>
</svg>
