<!-- Generated by IcoMoon.io -->
<svg version="1.1" xmlns="http://www.w3.org/2000/svg" width="32" height="32" viewBox="0 0 32 32">
<title>ok-hand-emoji</title>
<path fill="#fccc26" d="M20.333 3.667c0.973 2.136 1.307 4.359 1 6.667-0.76-1.273-1.643-2.369-2.659-3.326l-0.008-0.007c0.029 1.185 0.473 2.297 1.333 3.333 0.397 2.381 0.624 5.124 0.624 7.92 0 1.907-0.105 3.789-0.311 5.641l0.021-0.228c-0.737 1.407-1.847 2.297-3.333 2.667 2.438-2.903 3.216-6.236 2.333-10-0.967-1.869-2.412-3.202-4.333-4-1.223-2.849-2.26-6.198-2.946-9.674l-0.054-0.326c0.558-1.005 1.336-1.338 2.333-1 1.443 1.223 2.661 2.654 3.624 4.256l0.043 0.077c0.281-1.284 1.060-1.951 2.333-2z"></path>
<path fill="#f7c01e" d="M20.333 3.667c1.091 0.833 1.869 1.944 2.333 3.333 1.405-0.741 2.405-0.297 3 1.333-0.11 0.169-0.57 1.958-1.008 3.756l-0.325 1.577c-0.667-0.776-1.436-1.439-2.292-1.976l-0.042-0.024c-0.078 0.819-0.122 1.772-0.122 2.735 0 1.86 0.166 3.682 0.483 5.451l-0.028-0.186c-0.666 6.818-4.444 9.485-11.333 8-4.224-1.301-6.002-4.191-5.333-8.667 0.55 1.54 1.439 2.873 2.667 4 2.262 2.535 5.151 3.647 8.667 3.333 1.486-0.37 2.597-1.259 3.333-2.667 0.478-4.429 0.367-8.873-0.333-13.333-0.86-1.037-1.304-2.148-1.333-3.333 1.023 0.964 1.907 2.060 2.628 3.264l0.038 0.069c0.307-2.308-0.027-4.531-1-6.667z"></path>
<path fill="#f0b014" d="M25.667 8.333c-0.001 6.577-0.364 13.068-1.071 19.455l0.071-0.788-1.667 1.667c-1.602 0.212-3.453 0.333-5.333 0.333s-3.732-0.121-5.548-0.356l0.215 0.023c-0.611-0.185-1.055-0.519-1.333-1 6.889 1.485 10.667-1.182 11.333-8-0.29-1.583-0.456-3.405-0.456-5.265 0-0.963 0.044-1.915 0.131-2.855l-0.009 0.121c0.898 0.561 1.667 1.224 2.322 1.987l0.011 0.013c0.764-3.375 1.223-5.165 1.704-6.946l-0.37 1.612z"></path>
<path fill="#fdd02c" d="M15 12.333c1.921 0.798 3.366 2.131 4.333 4 0.883 3.764 0.105 7.097-2.333 10-3.515 0.313-6.405-0.798-8.667-3.333 6.744 2.479 9.077 0.257 7-6.667 0.237 0.973 0.126 1.862-0.333 2.667-1.075-2.507-2.853-3.173-5.333-2h-2.667c0.057-0.664-0.165-1.22-0.667-1.667 2.556-2.295 5.445-3.295 8.667-3z"></path>
<path fill="#fed846" d="M8.333 23c-1.228-1.127-2.117-2.46-2.667-4 0.288-0.807 0.733-1.473 1.333-2h2.667c0.329 1.664 1.030 3.127 2.015 4.353l-0.015-0.019c1.912 0.427 3.023-0.351 3.333-2.333 0.459-0.805 0.57-1.693 0.333-2.667 2.077 6.923-0.256 9.146-7 6.667z"></path>
</svg>
