<!-- Generated by IcoMoon.io -->
<svg version="1.1" xmlns="http://www.w3.org/2000/svg" width="32" height="32" viewBox="0 0 32 32">
<title>thumbs-up</title>
<path fill="#f9c31f" opacity="0.857" d="M19.667 9c-0.94-1.609-2.273-2.72-4-3.333 0.447-1.199 0.896-2.188 1.402-3.141l-0.069 0.141c2.464 0.029 3.575 1.363 3.333 4-0.009 0.923-0.232 1.701-0.667 2.333z"></path>
<path fill="#fed229" opacity="0.881" d="M15.667 5.667c1.727 0.613 3.060 1.724 4 3.333-1.323 2.241-0.656 3.352 2 3.333-0.473 0.603-1.139 0.825-2 0.667h-1.333c0.041-2.821-1.292-4.377-4-4.667l1.333-2.667z"></path>
<path fill="#fed53a" d="M14.333 8.333c2.708 0.29 4.041 1.846 4 4.667 0 0.445-0.222 0.667-0.667 0.667 0.049-1.018-0.396-1.685-1.333-2-1.035-1.257-2.369-1.923-4-2 0.315-0.937 0.982-1.382 2-1.333z"></path>
<path fill="#ffdd5e" d="M13 12.333c0.965 0.423 1.409 1.2 1.333 2.333 0.075 1.133-0.369 1.911-1.333 2.333 1.415-3.007 0.527-4.23-2.667-3.667-1.315 2.505-0.649 3.949 2 4.333-1.111 0.889-2.222 0.889-3.333 0-0.109-1.571 0.002-3.127 0.333-4.667 1.133-0.604 2.355-0.827 3.667-0.667z"></path>
<path fill="#fed63f" opacity="0.827" d="M5 13h1.333c-0.151 1.959 0.515 3.514 2 4.667 0.701 1.171 1.813 1.615 3.333 1.333-0.712 0.623-1.601 0.845-2.667 0.667-1.449-0.167-2.56-0.833-3.333-2-0.645-1.405-0.868-2.96-0.667-4.667z"></path>
<path fill="#ffdb55" d="M10.333 11c1.322-0.229 2.211 0.215 2.667 1.333-1.311-0.16-2.533 0.063-3.667 0.667-0.238 1.054-0.374 2.264-0.374 3.506 0 0.408 0.015 0.813 0.044 1.214l-0.003-0.054h-0.667c-1.485-1.153-2.151-2.708-2-4.667 1.523-0.317 2.856-0.983 4-2z"></path>
<path fill="#fdd029" d="M27 12.333c0.445 0 0.667 0.222 0.667 0.667 0.298 1.673-0.147 3.007-1.333 4h-5.333c-1.182-0.543-1.515-1.432-1-2.667 0.674-0.558 1.452-0.78 2.333-0.667l4.667-1.333z"></path>
<path fill="#ffdf67" d="M13 17c-0.445 0-0.667 0.222-0.667 0.667-2.649-0.384-3.315-1.828-2-4.333 3.193-0.563 4.082 0.659 2.667 3.667z"></path>
<path fill="#ebac1c" d="M21.667 12.333h5.333l-4.667 1.333c-0.881-0.113-1.659 0.109-2.333 0.667-0.515 1.235-0.182 2.124 1 2.667-0.434 0.874-1.126 1.566-1.975 1.989l-0.025 0.011c0-0.445-0.222-0.667-0.667-0.667-0.262-2.009 0.183-3.787 1.333-5.333 0.861 0.158 1.527-0.064 2-0.667z"></path>
<path fill="#ffdb55" d="M22.333 13.667c2.493-0.601 3.827 0.288 4 2.667-0.297 0.026-0.643 0.040-0.993 0.040-1.068 0-2.104-0.136-3.092-0.392l0.085 0.019c-0.789-0.763-0.789-1.541 0-2.333z"></path>
<path fill="#f9c827" d="M5 13c-0.201 1.707 0.021 3.262 0.667 4.667-0.107 1.133 0.004 2.244 0.333 3.333 0.925 0.824 1.703 1.713 2.333 2.667-2.121-0.259-3.899-1.148-5.333-2.667-0.026-0.546-0.041-1.186-0.041-1.83 0-1.941 0.136-3.85 0.399-5.719l-0.025 0.215c0.447-0.501 1.003-0.724 1.667-0.667z"></path>
<path fill="#feda4b" d="M12.333 9.667c1.631 0.077 2.965 0.743 4 2 0.283 3.664-1.273 6.109-4.667 7.333-1.521 0.282-2.632-0.163-3.333-1.333h0.667c1.111 0.889 2.222 0.889 3.333 0 0-0.445 0.222-0.667 0.667-0.667 0.965-0.423 1.409-1.2 1.333-2.333 0.075-1.133-0.369-1.911-1.333-2.333-0.455-1.118-1.345-1.562-2.667-1.333 0.315-0.937 0.982-1.382 2-1.333z"></path>
<path fill="#fbcc29" d="M21 17h5.333c0.407 1.289 1.073 2.4 2 3.333 0 0.445-0.222 0.667-0.667 0.667-1.269 0.197-2.38 0.641-3.333 1.333h-5.333c0.708-1.067 0.708-2.177 0-3.333 0.874-0.434 1.566-1.126 1.989-1.975l0.011-0.025z"></path>
<path fill="#f2b316" opacity="0.776" d="M27.667 13c0.655 2.308 0.877 4.753 0.667 7.333-0.927-0.933-1.593-2.044-2-3.333 1.187-0.993 1.631-2.327 1.333-4z"></path>
<path fill="#fed331" d="M5.667 17.667c0.773 1.167 1.884 1.833 3.333 2 0.587 1.259 0.587 2.593 0 4h-0.667c-0.631-0.953-1.409-1.843-2.333-2.667-0.329-1.089-0.44-2.2-0.333-3.333z"></path>
<path fill="#fdd338" d="M16.333 11.667c0.937 0.315 1.382 0.982 1.333 2-0.682 2.4-1.378 5.551-1.919 8.755l-0.081 0.579c-0.165 0.809-0.609 1.253-1.333 1.333-0.363-2.296-1.697-3.074-4-2.333-0.501 0.447-0.724 1.003-0.667 1.667h-0.667c0.587-1.407 0.587-2.741 0-4 1.066 0.179 1.955-0.044 2.667-0.667 3.394-1.225 4.949-3.669 4.667-7.333z"></path>
<path fill="#ffdd5c" d="M21.667 19h4v2h-4v-2z"></path>
<path fill="#f8c72c" d="M18.333 13h1.333c-1.151 1.547-1.595 3.325-1.333 5.333h-0.667c-0.641 1.177-0.863 2.51-0.667 4-0.623 0.712-0.845 1.601-0.667 2.667-1.123 0.329-2.412 0.519-3.746 0.519-0.796 0-1.576-0.067-2.335-0.197l0.082 0.012c-0.587-0.472-1.031-1.028-1.333-1.667h0.667c1.389 1.403 2.944 1.625 4.667 0.667 0.724-0.080 1.169-0.525 1.333-1.333 0.622-3.782 1.318-6.933 2.16-10.023l-0.16 0.69c0.445 0 0.667-0.222 0.667-0.667z"></path>
<path fill="#f2b416" opacity="0.635" d="M27.667 21c0.19 1.277-0.033 2.387-0.667 3.333-0.129-1.608-1.018-2.275-2.667-2 0.953-0.692 2.065-1.136 3.333-1.333z"></path>
<path fill="#fed84d" d="M14.333 24.333c-1.723 0.959-3.278 0.736-4.667-0.667-0.057-0.664 0.165-1.22 0.667-1.667 2.303-0.741 3.637 0.037 4 2.333z"></path>
<path fill="#fdd02d" d="M19 22.333h5.333c1.649-0.275 2.537 0.392 2.667 2 0 0.445-0.222 0.667-0.667 0.667h-2v-2h-4v2h-0.667c-1.413-0.602-1.636-1.491-0.667-2.667z"></path>
<path fill="#ffdb55" d="M24.333 25h-4v-2h4v2z"></path>
<path fill="#f4ba1c" d="M3 21c1.435 1.519 3.213 2.408 5.333 2.667h0.667c0.302 0.639 0.747 1.195 1.333 1.667 0.678 0.118 1.458 0.185 2.254 0.185 1.334 0 2.624-0.189 3.844-0.543l-0.097 0.024c-0.179-1.066 0.044-1.955 0.667-2.667 0.107 1.133-0.004 2.244-0.333 3.333-0.278 0.837-0.833 1.282-1.667 1.333-2.331-0.602-4.775-1.047-7.333-1.333-1.328-0.3-2.924-0.536-4.551-0.66l-0.116-0.007v-4z"></path>
<path fill="#efb320" d="M17.667 18.333c0.279 3.615 0.279 6.948 0 10h-2l-0.667-1.333c0.833-0.051 1.389-0.496 1.667-1.333 0.329-1.089 0.44-2.2 0.333-3.333-0.197-1.49 0.026-2.823 0.667-4z"></path>
<path fill="#fac622" d="M19.667 25.667v-0.667h6.667c0.16 1.689-0.507 2.8-2 3.333 0.158-0.861-0.064-1.527-0.667-2-1.177-0.641-2.51-0.863-4-0.667z"></path>
<path fill="#e9a81b" d="M17.667 18.333h0.667c0.445 0 0.667 0.222 0.667 0.667 0.708 1.156 0.708 2.267 0 3.333-0.969 1.175-0.747 2.065 0.667 2.667v0.667c-1.413 0.602-1.636 1.491-0.667 2.667h-1.333c0.279-3.052 0.279-6.385 0-10z"></path>
<path fill="#eead14" opacity="0.904" d="M7.667 25.667c2.558 0.287 5.002 0.731 7.333 1.333l0.667 1.333c-0.397 0.026-0.861 0.041-1.328 0.041-1.416 0-2.801-0.136-4.141-0.396l0.136 0.022c-1.216-0.44-2.105-1.218-2.667-2.333z"></path>
<path fill="#fed027" opacity="0.265" d="M19.667 25.667c1.49-0.197 2.823 0.026 4 0.667 0.603 0.473 0.825 1.139 0.667 2-1.778 0.889-3.555 0.889-5.333 0-0.969-1.175-0.747-2.065 0.667-2.667z"></path>
<path fill="#ffdb54" d="M23.667 26.333c0.011 1.323-0.656 1.989-2 2-1 0.031-1.667-0.413-2-1.333 0.879-0.466 1.922-0.739 3.028-0.739 0.343 0 0.68 0.026 1.008 0.077l-0.037-0.005z"></path>
</svg>
