<!-- Generated by IcoMoon.io -->
<svg version="1.1" xmlns="http://www.w3.org/2000/svg" width="32" height="32" viewBox="0 0 32 32">
<title>victory-hand</title>
<path fill="#fccd24" opacity="0.652" d="M24.333 6.333c-0.954-0.253-1.509-0.92-1.667-2-0.696 0.749-1.14 1.637-1.333 2.667-0.447 0.501-1.003 0.724-1.667 0.667l1-4c0.587-1.897 1.697-2.342 3.333-1.333 0.33 1.315 0.441 2.649 0.333 4z"></path>
<path fill="#fed232" opacity="0.804" d="M16.333 7c0.019 0.094 0.030 0.201 0.030 0.311 0 0.389-0.137 0.746-0.366 1.025l0.002-0.003c-0.284-0.794-0.742-1.466-1.329-1.996l-0.004-0.004c-0.32 2.198-0.669 4.006-1.090 5.786l0.090-0.452c-0.627-2.5-1.293-5.055-2-7.667 0.558-0.674 0.78-1.452 0.667-2.333 2.859 0.5 4.193 2.277 4 5.333z"></path>
<path fill="#fedb5b" opacity="0.995" d="M16.333 7c0.666 1.866 1.341 3.406 2.105 4.892l-0.105-0.225c0.871 0.645 1.315 1.533 1.333 2.667-0.347 0.026-0.752 0.041-1.161 0.041-1.242 0-2.452-0.136-3.617-0.394l0.111 0.021c-0.587-0.472-1.031-1.028-1.333-1.667v-0.667c0.331-1.327 0.68-3.135 0.955-4.967l0.045-0.367c0.592 0.534 1.049 1.206 1.323 1.966l0.011 0.034c0.226-0.276 0.364-0.633 0.364-1.022 0-0.11-0.011-0.218-0.032-0.322l0.002 0.010z"></path>
<path fill="#ffdb4b" opacity="0.886" d="M24.333 6.333c-1.503 3.623-1.503 7.179 0 10.667-1.248-1.403-2.803-2.291-4.667-2.667-0.018-1.133-0.463-2.022-1.333-2.667 0.639-1.201 1.083-2.535 1.333-4 0.664 0.057 1.22-0.165 1.667-0.667 0.193-1.029 0.637-1.918 1.333-2.667 0.157 1.080 0.713 1.747 1.667 2z"></path>
<path fill="#f9c827" d="M13.667 12.333c0.302 0.639 0.747 1.195 1.333 1.667 1.54 0.331 3.095 0.442 4.667 0.333 1.863 0.375 3.419 1.264 4.667 2.667 0.645 1.405 0.868 2.96 0.667 4.667l-1.333 2c0.213-6.702-3.12-9.591-10-8.667 0-0.445-0.222-0.667-0.667-0.667-1.302-0.937-1.969-0.493-2 1.333l0.333 2c0.651 0.849 1.207 0.849 1.667 0 0.703 1.075 0.37 1.963-1 2.667-0.521-0.095-0.975-0.332-1.335-0.668l0.001 0.001c-0.845 2.186-1.845 2.408-3 0.667h-0.667c-0.827-1.975-0.827-3.975 0-6 1.028-0.831 2.028-0.831 3 0 0.619-1.69 1.841-2.357 3.667-2z"></path>
<path fill="#fccf32" d="M13.667 15c6.88-0.924 10.213 1.965 10 8.667-0.167 1.449-0.833 2.56-2 3.333h-4c-0.973-2.554-0.75-4.999 0.667-7.333 0.362-0.040 0.584-0.262 0.667-0.667-2.204-0.709-3.751-1.275-5.278-1.881l0.611 0.214c-0.558-0.674-0.78-1.452-0.667-2.333z"></path>
<path fill="#ffdc58" d="M7.667 20.333c-0.046-0.292-0.072-0.629-0.072-0.972 0-1.107 0.273-2.149 0.756-3.064l-0.017 0.036c1.256 0.795 1.589 1.907 1 3.333-0.447 0.501-1.003 0.724-1.667 0.667z"></path>
<path fill="#fedb56" d="M13 14.333v3.333c-0.46 0.849-1.015 0.849-1.667 0l-0.333-2c0.031-1.826 0.698-2.27 2-1.333z"></path>
<path fill="#fed84a" d="M20.333 20.333h2c0.773 3.117-0.337 4.894-3.333 5.333-0.145-1.947 0.3-3.725 1.333-5.333z"></path>
<path fill="#f0b117" opacity="0.972" d="M13 14.333c0.445 0 0.667 0.222 0.667 0.667-0.113 0.881 0.109 1.659 0.667 2.333 1.537 0.597 3.092 1.153 4.667 1.667-0.083 0.405-0.305 0.627-0.667 0.667l-1.333-0.667h-2.667c0.417 2.583-0.693 3.806-3.333 3.667-1.025 0.74-1.469 1.74-1.333 3 0.787 1.045 1.898 1.6 3.333 1.667 3.013 0.543 5.903 0.431 8.667-0.333 1.167-0.773 1.833-1.884 2-3.333l1.333-2c0.469 2.869-0.42 5.202-2.667 7-4.149 1.054-8.371 1.277-12.667 0.667-2.309-2.523-3.199-5.523-2.667-9h0.667c1.155 1.741 2.155 1.519 3-0.667 0.358 0.335 0.813 0.572 1.317 0.664l0.016 0.002c1.37-0.703 1.703-1.592 1-2.667v-3.333z"></path>
<path fill="#fbce36" d="M17 19c-1.421 1.964-2.087 4.187-2 6.667h-5.333c-0.136-1.26 0.309-2.26 1.333-3 2.64 0.139 3.751-1.083 3.333-3.667h2.667z"></path>
<path fill="#f6c023" d="M17 19l1.333 0.667c-1.417 2.335-1.639 4.779-0.667 7.333h4c-2.764 0.765-5.653 0.876-8.667 0.333-1.435-0.067-2.547-0.622-3.333-1.667h5.333c-0.087-2.48 0.579-4.703 2-6.667z"></path>
</svg>
